<?xml version="1.0" encoding="utf-8"?>
<svg xmlns="http://www.w3.org/2000/svg" id="Layer_1" x="0" y="0" version="1.1" viewBox="0 0 835 126.9" xml:space="preserve">
  <style>
    .st0{fill:#373738}.st1{fill:#757575}.st3{fill:#fcd9bb}.st4{fill:#fff}
  </style>
  <path d="M203.6 67c1.7 2.3 2.6 5.2 2.6 8.6 0 4.7-1.7 8.3-5 11-3.3 2.6-7.9 4-13.8 4h-24.9v-55h24.1c5.7 0 10.1 1.3 13.3 3.8 3.2 2.5 4.9 6.1 4.9 10.5 0 2.9-.8 5.4-2.3 7.5-1.5 2.1-3.6 3.7-6.3 4.7 3.3 1 5.7 2.6 7.4 4.9zm-31.4-8.2H185c6.9 0 10.3-2.6 10.3-7.7 0-2.6-.8-4.5-2.5-5.8-1.7-1.3-4.3-1.9-7.8-1.9h-12.8v15.4zm22 22.1c1.7-1.3 2.5-3.3 2.5-6.1s-.8-4.9-2.5-6.2c-1.7-1.3-4.3-2-7.9-2h-14.1v16.3h14.1c3.6-.1 6.3-.7 7.9-2zM247.2 71.6h-26.8c.2 4.2 1.2 7.2 3.1 9.2 1.9 2 4.7 3 8.4 3 4.3 0 8.2-1.4 11.9-4.2l2.8 6.6c-1.9 1.5-4.1 2.7-6.8 3.6-2.7.9-5.4 1.3-8.2 1.3-6.4 0-11.4-1.8-15-5.4-3.7-3.6-5.5-8.5-5.5-14.8 0-4 .8-7.5 2.4-10.6 1.6-3.1 3.8-5.5 6.7-7.2 2.9-1.7 6.1-2.6 9.8-2.6 5.3 0 9.6 1.7 12.7 5.2 3.1 3.5 4.7 8.2 4.7 14.3v1.6zm-23.4-11.8c-1.6 1.5-2.7 3.7-3.1 6.6h18.1c-.3-2.9-1.2-5.1-2.7-6.6-1.5-1.5-3.5-2.2-6.1-2.2-2.5-.1-4.6.7-6.2 2.2zM250.9 86.2l2.7-6.8c4.2 3.1 8.9 4.6 14.3 4.6 2.3 0 4.1-.4 5.4-1.2 1.3-.8 1.9-1.8 1.9-3.2 0-1.2-.4-2.1-1.3-2.8-.9-.7-2.4-1.3-4.5-1.8l-6.5-1.5c-7.1-1.5-10.6-5.2-10.6-10.9 0-2.4.7-4.5 2-6.3 1.3-1.8 3.2-3.3 5.6-4.3 2.4-1 5.2-1.5 8.4-1.5 2.8 0 5.4.4 8 1.3 2.6.8 4.8 2.1 6.8 3.7l-2.9 6.6c-3.9-2.9-7.9-4.3-12-4.3-2.2 0-3.9.4-5.2 1.2-1.2.8-1.9 2-1.9 3.4 0 1.1.4 2 1.1 2.7.7.7 2 1.2 3.8 1.7l6.6 1.5c3.9.9 6.7 2.2 8.4 4 1.8 1.8 2.7 4.2 2.7 7.1 0 3.6-1.4 6.5-4.3 8.6-2.9 2.1-6.8 3.2-11.8 3.2-7-.1-12.6-1.7-16.7-5zM302 58.8v17.4c0 4.6 2.1 6.9 6.4 6.9 1.2 0 2.5-.2 3.9-.6v7.6c-1.7.6-3.8.9-6.2.9-4.4 0-7.8-1.2-10.2-3.7-2.4-2.5-3.5-6-3.5-10.6V58.8h-7.5v-7.2h7.5v-9.5l9.6-3.2v12.7h10.3v7.2H302zM327.3 85.4c-3.9-3.9-5.8-9.6-5.8-17.1V35.6h9.8v33.2c0 4.7 1.1 8.3 3.3 10.8 2.2 2.4 5.5 3.7 9.9 3.7 4.3 0 7.5-1.2 9.8-3.7s3.4-6 3.4-10.7V35.6h9.8v32.7c0 7.5-2 13.1-5.9 17-3.9 3.9-9.6 5.9-17 5.9-7.7 0-13.4-1.9-17.3-5.8zM371 86.2l2.7-6.8c4.2 3.1 8.9 4.6 14.3 4.6 2.3 0 4.1-.4 5.4-1.2 1.3-.8 1.9-1.8 1.9-3.2 0-1.2-.4-2.1-1.3-2.8-.9-.7-2.4-1.3-4.5-1.8l-6.5-1.5c-7.1-1.5-10.6-5.2-10.6-10.9 0-2.4.7-4.5 2-6.3 1.3-1.8 3.2-3.3 5.6-4.3 2.4-1 5.2-1.5 8.4-1.5 2.8 0 5.4.4 8 1.3 2.6.8 4.8 2.1 6.8 3.7l-2.9 6.6c-3.9-2.9-7.9-4.3-12-4.3-2.2 0-3.9.4-5.2 1.2-1.2.8-1.9 2-1.9 3.4 0 1.1.4 2 1.1 2.7.7.7 2 1.2 3.8 1.7l6.6 1.5c3.9.9 6.7 2.2 8.4 4 1.8 1.8 2.7 4.2 2.7 7.1 0 3.6-1.4 6.5-4.3 8.6-2.9 2.1-6.8 3.2-11.8 3.2-7-.1-12.6-1.7-16.7-5zM443.3 71.6h-26.8c.2 4.2 1.2 7.2 3.1 9.2 1.9 2 4.7 3 8.4 3 4.3 0 8.2-1.4 11.9-4.2l2.8 6.6c-1.9 1.5-4.1 2.7-6.8 3.6-2.7.9-5.4 1.3-8.2 1.3-6.4 0-11.4-1.8-15-5.4-3.7-3.6-5.5-8.5-5.5-14.8 0-4 .8-7.5 2.4-10.6 1.6-3.1 3.8-5.5 6.7-7.2 2.9-1.7 6.1-2.6 9.8-2.6 5.3 0 9.6 1.7 12.7 5.2 3.1 3.5 4.7 8.2 4.7 14.3v1.6zm-23.4-11.8c-1.6 1.5-2.7 3.7-3.1 6.6h18.1c-.3-2.9-1.2-5.1-2.7-6.6-1.5-1.5-3.5-2.2-6.1-2.2-2.5-.1-4.6.7-6.2 2.2zM484.3 66.6v23.9h-9.6V67.1c0-3.1-.6-5.3-1.8-6.7-1.2-1.4-3-2.1-5.5-2.1-2.9 0-5.3.9-7.1 2.8-1.8 1.9-2.7 4.4-2.7 7.4v22H448V62.6c0-4.1-.2-7.8-.6-11h9l.7 6.4c1.3-2.4 3.1-4.2 5.4-5.5 2.3-1.3 4.9-1.9 7.7-1.9 9.5 0 14.1 5.3 14.1 16zM525.1 71.6h-26.8c.2 4.2 1.2 7.2 3.1 9.2 1.9 2 4.7 3 8.4 3 4.3 0 8.2-1.4 11.9-4.2l2.8 6.6c-1.9 1.5-4.1 2.7-6.8 3.6-2.7.9-5.4 1.3-8.2 1.3-6.4 0-11.4-1.8-15-5.4-3.7-3.6-5.5-8.5-5.5-14.8 0-4 .8-7.5 2.4-10.6 1.6-3.1 3.8-5.5 6.7-7.2 2.9-1.7 6.1-2.6 9.8-2.6 5.3 0 9.6 1.7 12.7 5.2 3.1 3.5 4.7 8.2 4.7 14.3v1.6zm-23.4-11.8c-1.6 1.5-2.7 3.7-3.1 6.6h18.1c-.3-2.9-1.2-5.1-2.7-6.6-1.5-1.5-3.5-2.2-6.1-2.2-2.5-.1-4.6.7-6.2 2.2zM543.1 58.8v17.4c0 4.6 2.1 6.9 6.4 6.9 1.2 0 2.5-.2 3.9-.6v7.6c-1.7.6-3.8.9-6.2.9-4.4 0-7.8-1.2-10.2-3.7-2.4-2.5-3.5-6-3.5-10.6V58.8H526v-7.2h7.5v-9.5l9.6-3.2v12.7h10.3v7.2h-10.3z" class="st0"/>
  <path d="M608.2 90.5h-6.7l-6.8-18.3c-.8-2.3-2-3.8-3.4-4.5-1.5-.8-3.5-1.2-6.2-1.2h-13.7v24h-6.2V35.6H587c5.9 0 10.4 1.3 13.6 3.9 3.2 2.6 4.7 6.4 4.7 11.3 0 3.6-.9 6.6-2.8 9.1-1.9 2.4-4.6 4.2-8.1 5.2 1.6.3 3 .9 4.1 2 1.1 1.1 2.1 2.7 2.9 4.7l6.8 18.7zm-21.8-29.2c8.4 0 12.6-3.4 12.6-10.3 0-3.4-1-5.9-3.1-7.6-2.1-1.7-5.2-2.5-9.6-2.5h-15v20.4h15.1zM646.6 70.9h-28.5c.1 4.9 1.2 8.7 3.4 11.2s5.5 3.8 9.8 3.8c4.5 0 8.7-1.5 12.5-4.5l2.1 4.5c-1.7 1.6-3.9 2.9-6.5 3.8-2.6.9-5.4 1.4-8.1 1.4-6.1 0-10.8-1.8-14.3-5.4-3.4-3.6-5.2-8.5-5.2-14.7 0-4 .8-7.5 2.3-10.5 1.5-3.1 3.7-5.4 6.5-7.1 2.8-1.7 5.9-2.5 9.5-2.5 5.1 0 9.2 1.7 12.1 5.1 2.9 3.4 4.4 8 4.4 13.9v1zm-24.4-12.3c-2 2-3.3 4.7-3.9 8.2h22.6c-.3-3.6-1.4-6.4-3.2-8.3-1.8-1.9-4.4-2.9-7.6-2.9-3.2.1-5.8 1-7.9 3zM680.2 51.8h6.2l-16.7 38.7h-5.9l-16.5-38.7h6.6L667 83.7l13.2-31.9zM690.7 35.3h7.6v7.1h-7.6v-7.1zm.6 55.2V51.7h6.2v38.8h-6.2zM738.4 70.9h-28.5c.1 4.9 1.2 8.7 3.4 11.2s5.5 3.8 9.8 3.8c4.5 0 8.7-1.5 12.5-4.5l2.1 4.5c-1.7 1.6-3.9 2.9-6.5 3.8-2.6.9-5.4 1.4-8.1 1.4-6.1 0-10.8-1.8-14.3-5.4-3.4-3.6-5.2-8.5-5.2-14.7 0-4 .8-7.5 2.3-10.5 1.5-3.1 3.7-5.4 6.5-7.1 2.8-1.7 5.9-2.5 9.5-2.5 5.1 0 9.2 1.7 12.1 5.1 2.9 3.4 4.4 8 4.4 13.9v1zm-24.3-12.3c-2 2-3.3 4.7-3.9 8.2h22.6c-.3-3.6-1.4-6.4-3.2-8.3-1.8-1.9-4.4-2.9-7.6-2.9-3.3.1-5.9 1-7.9 3zM796.3 51.7h6.2l-14.3 38.8h-6L771 60.2l-11 30.3h-6l-14.3-38.8h6.6L757.1 83l11.3-31.3h5.5l11.2 31.4 11.2-31.4zM803.9 86l2.1-4.6c2.1 1.6 4.2 2.8 6.4 3.5 2.2.7 4.6 1.1 7.2 1.1 2.9 0 5.2-.5 6.7-1.5s2.3-2.5 2.3-4.4c0-1.5-.5-2.8-1.5-3.7-1-.9-2.7-1.6-5.1-2.2l-6.6-1.5c-3.2-.7-5.7-2-7.5-3.9s-2.7-4.1-2.7-6.6c0-3.4 1.4-6.2 4.1-8.3 2.7-2.1 6.3-3.2 10.8-3.2 2.7 0 5.3.4 7.7 1.3 2.4.9 4.4 2.1 6.1 3.8l-2.1 4.6c-3.7-3-7.6-4.6-11.7-4.6-2.8 0-4.9.5-6.4 1.6s-2.3 2.5-2.3 4.4c0 1.6.5 2.9 1.4 3.8 1 .9 2.5 1.6 4.6 2.2l6.6 1.6c3.6.8 6.3 2.1 8 3.8 1.7 1.7 2.6 4 2.6 6.7 0 3.3-1.4 6-4.1 8-2.7 2-6.4 3-11.1 3-6.5.2-11.7-1.5-15.5-4.9z" class="st1"/>
  <path fill="#da9857" d="M8.6 45l43.9 30c1.7 1.2 4.1 1.8 6.4 1.8 2.3 0 4.7-.6 6.4-1.8l43.9-30c1.4-1 2.2-2.2 2.2-3.5 0-1.2-.8-2.4-2.2-3.4l-43.9-30c-1.7-1.1-4-1.8-6.4-1.8-2.5 0-4.8.6-6.4 1.8l-43.9 30c-1.4 1-2.2 2.2-2.2 3.5 0 1.3.8 2.5 2.2 3.4z"/>
  <path d="M111.6 70.4l-43.7 29.8c-2.4 1.6-5.6 2.5-8.9 2.5-3.3 0-6.5-.9-8.9-2.5L6.4 70.4v14.4c0 1.3.8 2.5 2.2 3.5l43.9 30c1.7 1.2 4.1 1.8 6.4 1.8 2.3 0 4.7-.6 6.4-1.8l43.9-30c1.4-1 2.3-2.3 2.2-3.5l.2-14.4z" class="st3"/>
  <path d="M8.6 66.7l43.9 30c1.7 1.2 4.1 1.8 6.4 1.8 2.3 0 4.7-.6 6.4-1.8l43.9-30c1.4-1 2.2-2.2 2.2-3.4V48.8L67.9 78.6c-2.4 1.6-5.6 2.5-8.9 2.5-3.3 0-6.5-.9-8.9-2.5L6.4 48.8v14.5c0 1.2.8 2.4 2.2 3.4z" class="st3"/>
  <path d="M26.3 45.2c.6 0 1.3-.2 1.8-.6l17.5-11.9c1.5-1 1.9-3 .9-4.5-1-1.5-3-1.9-4.5-.9l-17.5 12c-1.5 1-1.9 3-.9 4.5.7.9 1.7 1.4 2.7 1.4zM34.3 51.1c.7.9 1.7 1.4 2.7 1.4.6 0 1.3-.2 1.8-.6L69 31.4c1.5-1 1.9-3 .9-4.5-1-1.5-3-1.9-4.5-.9L35.2 46.6c-1.5 1-1.9 3-.9 4.5zM67.9 38.9l-22 15c-1.5 1-1.9 3-.9 4.5.6.9 1.6 1.4 2.7 1.4.6 0 1.3-.2 1.8-.6l22-15c1.5-1 1.9-3 .9-4.5-1-1.4-3-1.8-4.5-.8zM67.6 53.7l-11 7.5c-1.5 1-1.9 3-.9 4.5.6.9 1.6 1.4 2.7 1.4.6 0 1.3-.2 1.8-.6l11-7.5c1.5-1 1.9-3 .9-4.5-1-1.4-3-1.8-4.5-.8z" class="st4"/>
  <path d="M117 41.7c0-.1 0-.1 0 0 0-3.1-1.7-6-4.6-8l-43.9-30c-5.3-3.6-13.7-3.6-19 0l-43.9 30c-2.9 2-4.6 4.9-4.6 7.9V84.7c-.1 3.1 1.6 6.1 4.6 8.1l43.9 30c2.7 1.8 6.1 2.7 9.5 2.7s6.8-.9 9.5-2.7l43.9-30c3-2 4.7-5 4.6-8.1V63.2 41.7zM9.2 39.1l43.9-30C54.7 8 56.9 7.5 59 7.5c2.1 0 4.3.5 5.8 1.6l43.9 30c1.1.8 1.7 1.7 1.7 2.5 0 .9-.6 1.8-1.7 2.5l-43.9 30c-3.1 2.1-8.6 2.1-11.7 0l-43.9-30c-1.1-.8-1.7-1.7-1.7-2.5 0-.9.6-1.8 1.7-2.5zm99.6 48.4l-43.9 30c-3.1 2.1-8.6 2.1-11.7 0l-43.9-30c-1.1-.8-1.8-1.7-1.7-2.6V72.5l42 28.7c2.7 1.8 6.1 2.7 9.5 2.7s6.8-.9 9.5-2.7l42-28.7v12.4c0 .8-.7 1.8-1.8 2.6zm1.7-24.3c0 .9-.6 1.8-1.7 2.6l-43.9 30c-3.1 2.1-8.6 2.1-11.7 0l-43.9-30c-1.1-.8-1.8-1.7-1.7-2.6V50.8l42 28.7c2.7 1.8 6.1 2.7 9.5 2.7s6.8-.9 9.5-2.7l42-28.7v12.4h-.1z" class="st0"/>
  <ellipse cx="95.5" cy="67.9" class="st0" rx="2.8" ry="2.1" transform="rotate(-49.737 95.469 67.932)"/>
  <ellipse cx="104.1" cy="62.5" class="st0" rx="2.8" ry="2.1" transform="rotate(-49.737 104.078 62.46)"/>
  <ellipse cx="95.5" cy="89.5" class="st0" rx="2.8" ry="2.1" transform="rotate(-49.737 95.47 89.456)"/>
  <ellipse cx="104.1" cy="84" class="st0" rx="2.8" ry="2.1" transform="rotate(-49.737 104.079 83.984)"/>
</svg>
