<?xml version="1.0" encoding="utf-8"?>
<!-- Generator: Adobe Illustrator 25.2.1, SVG Export Plug-In . SVG Version: 6.00 Build 0)  -->
<svg version="1.1" id="Layer_1" xmlns="http://www.w3.org/2000/svg" xmlns:xlink="http://www.w3.org/1999/xlink" x="0px" y="0px"
	 viewBox="0 0 125 125" style="enable-background:new 0 0 125 125;" xml:space="preserve">
<style type="text/css">
	.st0{fill:#DA9857;}
	.st1{fill:#FCD9BB;}
	.st2{fill:#FFFFFF;}
	.st3{fill:#373738;}
</style>
<path class="st0" d="M12.1,44.3l43.9,30c1.7,1.2,4.1,1.8,6.4,1.8s4.7-0.6,6.4-1.8l43.9-30c1.4-1,2.2-2.2,2.2-3.5
	c0-1.2-0.8-2.4-2.2-3.4l-43.9-30c-1.7-1.1-4-1.8-6.4-1.8c-2.5,0-4.8,0.6-6.4,1.8l-43.9,30c-1.4,1-2.2,2.2-2.2,3.5
	S10.7,43.4,12.1,44.3z"/>
<path class="st1" d="M115.1,69.7L71.4,99.4c-2.4,1.6-5.6,2.5-8.9,2.5c-3.3,0-6.5-0.9-8.9-2.5L9.9,69.7v14.4c0,1.3,0.8,2.5,2.2,3.5
	l43.9,30c1.7,1.2,4.1,1.8,6.4,1.8s4.7-0.6,6.4-1.8l43.9-30c1.4-1,2.3-2.3,2.2-3.5L115.1,69.7z"/>
<path class="st1" d="M12.1,65.9l43.9,30c1.7,1.2,4.1,1.8,6.4,1.8s4.7-0.6,6.4-1.8l43.9-30c1.4-1,2.2-2.2,2.2-3.4V48.1L71.4,77.8
	c-2.4,1.6-5.6,2.5-8.9,2.5c-3.3,0-6.5-0.9-8.9-2.5L9.9,48.1v14.5C9.9,63.8,10.7,64.9,12.1,65.9z"/>
<path class="st2" d="M29.8,44.5c0.6,0,1.3-0.2,1.8-0.6L49.1,32c1.5-1,1.9-3,0.9-4.5s-3-1.9-4.5-0.9L28,38.6c-1.5,1-1.9,3-0.9,4.5
	C27.8,44,28.8,44.5,29.8,44.5z M37.8,50.4c0.7,0.9,1.7,1.4,2.7,1.4c0.6,0,1.3-0.2,1.8-0.6l30.2-20.5c1.5-1,1.9-3,0.9-4.5
	s-3-1.9-4.5-0.9L38.7,45.9C37.2,46.9,36.8,48.9,37.8,50.4z M71.4,38.2l-22,15c-1.5,1-1.9,3-0.9,4.5c0.6,0.9,1.6,1.4,2.7,1.4
	c0.6,0,1.3-0.2,1.8-0.6l22-15c1.5-1,1.9-3,0.9-4.5C74.9,37.6,72.9,37.2,71.4,38.2z M71.1,53l-11,7.5c-1.5,1-1.9,3-0.9,4.5
	c0.6,0.9,1.6,1.4,2.7,1.4c0.6,0,1.3-0.2,1.8-0.6l11-7.5c1.5-1,1.9-3,0.9-4.5C74.6,52.4,72.6,52,71.1,53z"/>
<path class="st3" d="M120.5,41C120.5,40.9,120.5,40.9,120.5,41c0-3.1-1.7-6-4.6-8L72,3c-5.3-3.6-13.7-3.6-19,0L9.1,33
	c-2.9,2-4.6,4.9-4.6,7.9v43.1C4.4,87,6.1,90,9.1,92L53,122c2.7,1.8,6.1,2.7,9.5,2.7s6.8-0.9,9.5-2.7l43.9-30c3-2,4.7-5,4.6-8.1V62.5
	V41z M12.7,38.4l43.9-30c1.6-1.1,3.8-1.6,5.9-1.6s4.3,0.5,5.8,1.6l43.9,30c1.1,0.8,1.7,1.7,1.7,2.5c0,0.9-0.6,1.8-1.7,2.5l-43.9,30
	c-3.1,2.1-8.6,2.1-11.7,0l-43.9-30c-1.1-0.8-1.7-1.7-1.7-2.5C11,40,11.6,39.1,12.7,38.4z M112.3,86.8l-43.9,30
	c-3.1,2.1-8.6,2.1-11.7,0l-43.9-30c-1.1-0.8-1.8-1.7-1.7-2.6V71.8l42,28.7c2.7,1.8,6.1,2.7,9.5,2.7s6.8-0.9,9.5-2.7l42-28.7v12.4
	C114.1,85,113.4,86,112.3,86.8z M114,62.5c0,0.9-0.6,1.8-1.7,2.6l-43.9,30c-3.1,2.1-8.6,2.1-11.7,0l-43.9-30
	c-1.1-0.8-1.8-1.7-1.7-2.6V50.1l42,28.7c2.7,1.8,6.1,2.7,9.5,2.7s6.8-0.9,9.5-2.7l42-28.7L114,62.5C114.1,62.5,114,62.5,114,62.5z"
	/>
<ellipse transform="matrix(0.6463 -0.7631 0.7631 0.6463 -16.2277 99.2653)" class="st3" cx="99" cy="67.1" rx="2.8" ry="2.1"/>
<ellipse transform="matrix(0.6463 -0.7631 0.7631 0.6463 -9.0305 103.9556)" class="st3" cx="107.6" cy="61.7" rx="2.8" ry="2.1"/>
<ellipse transform="matrix(0.6463 -0.7631 0.7631 0.6463 -32.6698 106.9405)" class="st3" cx="99" cy="88.7" rx="2.8" ry="2.1"/>
<ellipse transform="matrix(0.6463 -0.7631 0.7631 0.6463 -25.4502 111.5498)" class="st3" cx="107.6" cy="83.2" rx="2.8" ry="2.1"/>
</svg>
