<?xml version="1.0" encoding="utf-8"?>
<!-- Generator: Adobe Illustrator 25.2.1, SVG Export Plug-In . SVG Version: 6.00 Build 0)  -->
<svg version="1.1" id="Layer_1" xmlns="http://www.w3.org/2000/svg" xmlns:xlink="http://www.w3.org/1999/xlink" x="0px" y="0px"
	 viewBox="0 0 86.4 86.4" style="enable-background:new 0 0 86.4 86.4;" xml:space="preserve">
<style type="text/css">
	.st0{fill:#B27742;}
	.st1{fill:#DDDDDD;}
</style>
<g>
	<path class="st0" d="M42.3,29.2c-3.7,0.2-7.1,1.6-9.8,4.1l4.2,4.2c1.6-1.3,3.5-2.1,5.6-2.3V29.2z M42.3,29.2"/>
	<path class="st0" d="M35.3,38.9l-4.2-4.2c-2.4,2.7-3.9,6.2-4.1,9.8h6C33.2,42.4,34,40.5,35.3,38.9L35.3,38.9z M35.3,38.9"/>
	<path class="st0" d="M53.5,44.5h6c-0.2-3.7-1.6-7.1-4.1-9.8l-4.2,4.2C52.5,40.5,53.3,42.4,53.5,44.5L53.5,44.5z M53.5,44.5"/>
	<path class="st0" d="M53.4,46.4c-0.1,1.5-0.6,2.7-1,3.7c0.5,0.7,0.9,1.4,1.1,1.8c0.7,1.1,0.6,2.6-0.4,3.5c-0.2,0.2-0.5,0.4-0.8,0.6
		l1,1c0.2,0.2,0.4,0.3,0.7,0.3c0.2,0,0.5-0.1,0.7-0.3c2.8-2.8,4.5-6.6,4.7-10.5H53.4z M53.4,46.4"/>
	<path class="st0" d="M33,46.4h-6c0.2,4,1.9,7.7,4.7,10.5c0.2,0.2,0.4,0.3,0.7,0.3c0.2,0,0.5-0.1,0.7-0.3l2.9-2.9
		c0.4-0.4,0.4-1,0-1.3C35.2,52,33.3,49.9,33,46.4L33,46.4z M33,46.4"/>
	<path class="st0" d="M54,33.3c-2.7-2.4-6.2-3.9-9.8-4.1v6c2.1,0.2,4,1,5.6,2.3L54,33.3z M54,33.3"/>
	<path class="st0" d="M45.3,43.3c-1.2-1.2-3.1-1.2-4.2,0c-1.2,1.2-1.2,3.1,0,4.2c1.5,1.5,8.7,6.1,9.5,6.6c0.4,0.2,0.9,0.2,1.2-0.1
		c0.3-0.3,0.4-0.8,0.1-1.2C51.4,52.1,46.8,44.8,45.3,43.3L45.3,43.3z M45.3,43.3"/>
</g>
<path class="st1" d="M43.2,0C19.4,0,0,19.4,0,43.2c0,23.9,19.4,43.2,43.2,43.2s43.2-19.4,43.2-43.2C86.4,19.4,67.1,0,43.2,0z
	 M43.2,85.1c-23.1,0-41.9-18.8-41.9-41.9c0-23.1,18.8-41.9,41.9-41.9c23.1,0,41.9,18.8,41.9,41.9C85.1,66.4,66.4,85.1,43.2,85.1z"/>
</svg>
