<?xml version="1.0" encoding="utf-8"?>
<!-- Generator: Adobe Illustrator 25.2.1, SVG Export Plug-In . SVG Version: 6.00 Build 0)  -->
<svg version="1.1" id="Layer_1" xmlns="http://www.w3.org/2000/svg" xmlns:xlink="http://www.w3.org/1999/xlink" x="0px" y="0px"
	 viewBox="0 0 86.4 86.4" style="enable-background:new 0 0 86.4 86.4;" xml:space="preserve">
<style type="text/css">
	.st0{fill:#B27742;}
	.st1{fill:#DDDDDD;}
</style>
<g>
	<path class="st0" d="M51.1,47.3c-1.1,1.5-2.9,2.5-4.9,2.5h-2.8c-1,0-1.8-0.6-2.1-1.5c-0.4-0.1-0.8-0.3-1.1-0.5
		c-0.8-0.4-1.5-0.9-2.1-1.6c-4.1,0.9-7.2,4.6-7.2,8.9v0.6c0,0.8,0.6,1.4,1.4,1.4h22.1c0.8,0,1.4-0.6,1.4-1.4v-0.6
		C55.7,51.9,53.9,48.9,51.1,47.3L51.1,47.3z M51.1,47.3"/>
	<path class="st0" d="M36.4,43.4c0.6,0,1.1-0.3,1.4-0.8c0,0,0,0,0,0.1l0,0c0.6,1.7,1.9,3.1,3.6,3.8c0.4-0.6,1.1-1.1,1.9-1.1h2.8
		c0.3,0,0.5-0.1,0.8-0.2c0.4-0.2,0.7-0.8,0.9-1.1c0.3-0.5,0.5-1,0.7-1.5c0.1,0.2,0.3,0.4,0.4,0.5v0.7c0,1.6-1.3,2.9-2.9,2.9h-2.8
		c-0.5,0-1,0.4-1,1c0,0.5,0.4,1,1,1h2.8c2.6,0,4.8-2.2,4.8-4.8V43c0.4-0.3,0.6-0.8,0.6-1.3v-4.1c0-0.5-0.3-1-0.7-1.3
		c-0.3-4-3.7-7.2-7.7-7.2c-4.1,0-7.4,3.2-7.7,7.2c-0.4,0.3-0.7,0.8-0.7,1.3v4.1C34.8,42.6,35.5,43.4,36.4,43.4L36.4,43.4z
		 M43.2,31.2c3,0,5.5,2.3,5.8,5.2c-0.2,0.2-0.3,0.3-0.5,0.6c-0.9-2.4-3-4.1-5.3-4.1c-2.4,0-4.4,1.7-5.3,4c0,0,0,0,0,0
		c-0.1-0.2-0.3-0.4-0.5-0.6C37.7,33.5,40.2,31.2,43.2,31.2L43.2,31.2z M43.2,31.2"/>
</g>
<path class="st1" d="M43.2,0C19.4,0,0,19.4,0,43.2c0,23.9,19.4,43.2,43.2,43.2s43.2-19.4,43.2-43.2C86.4,19.4,67.1,0,43.2,0z
	 M43.2,85.1c-23.1,0-41.9-18.8-41.9-41.9c0-23.1,18.8-41.9,41.9-41.9c23.1,0,41.9,18.8,41.9,41.9C85.1,66.4,66.4,85.1,43.2,85.1z"/>
</svg>
