<?xml version="1.0" encoding="utf-8"?>
<!-- Generator: Adobe Illustrator 25.2.1, SVG Export Plug-In . SVG Version: 6.00 Build 0)  -->
<svg version="1.1" id="Layer_1" xmlns="http://www.w3.org/2000/svg" xmlns:xlink="http://www.w3.org/1999/xlink" x="0px" y="0px"
	 viewBox="0 0 86.4 86.4" style="enable-background:new 0 0 86.4 86.4;" xml:space="preserve">
<style type="text/css">
	.st0{fill:#B27742;}
	.st1{fill:#DDDDDD;}
</style>
<g>
	<path class="st0" d="M54.9,29.2h-2.8V32c0,0.6-0.5,0.9-0.9,0.9c-0.5,0-0.9-0.4-0.9-0.9v-2.8H35.3V32c0,0.6-0.5,0.9-0.9,0.9
		c-0.5,0-0.9-0.4-0.9-0.9v-2.8h-2.8c-1.4,0-2.4,1.2-2.4,2.8v3.4h29.9V32C58.1,30.4,56.4,29.2,54.9,29.2L54.9,29.2z M28.2,37.3v17.1
		c0,1.7,1,2.8,2.5,2.8H55c1.5,0,3.2-1.2,3.2-2.8V37.3H28.2z M36.6,53h-2.2c-0.4,0-0.7-0.3-0.7-0.7v-2.3c0-0.4,0.3-0.7,0.7-0.7h2.3
		c0.4,0,0.7,0.3,0.7,0.7v2.3C37.3,52.7,37,53,36.6,53L36.6,53z M36.6,44.6h-2.2c-0.4,0-0.7-0.3-0.7-0.7v-2.3c0-0.4,0.3-0.7,0.7-0.7
		h2.3c0.4,0,0.7,0.3,0.7,0.7v2.3C37.3,44.3,37,44.6,36.6,44.6L36.6,44.6z M44,53h-2.3c-0.4,0-0.7-0.3-0.7-0.7v-2.3
		c0-0.4,0.3-0.7,0.7-0.7H44c0.4,0,0.7,0.3,0.7,0.7v2.3C44.8,52.7,44.5,53,44,53L44,53z M44,44.6h-2.3c-0.4,0-0.7-0.3-0.7-0.7v-2.3
		c0-0.4,0.3-0.7,0.7-0.7H44c0.4,0,0.7,0.3,0.7,0.7v2.3C44.8,44.3,44.5,44.6,44,44.6L44,44.6z M51.5,53h-2.3c-0.4,0-0.7-0.3-0.7-0.7
		v-2.3c0-0.4,0.3-0.7,0.7-0.7h2.3c0.4,0,0.7,0.3,0.7,0.7v2.3C52.2,52.7,52,53,51.5,53L51.5,53z M51.5,44.6h-2.3
		c-0.4,0-0.7-0.3-0.7-0.7v-2.3c0-0.4,0.3-0.7,0.7-0.7h2.3c0.4,0,0.7,0.3,0.7,0.7v2.3C52.2,44.3,52,44.6,51.5,44.6L51.5,44.6z
		 M51.5,44.6"/>
</g>
<path class="st1" d="M43.2,0C19.4,0,0,19.4,0,43.2c0,23.9,19.4,43.2,43.2,43.2s43.2-19.4,43.2-43.2C86.4,19.4,67.1,0,43.2,0z
	 M43.2,85.1c-23.1,0-41.9-18.8-41.9-41.9c0-23.1,18.8-41.9,41.9-41.9c23.1,0,41.9,18.8,41.9,41.9C85.1,66.4,66.4,85.1,43.2,85.1z"/>
</svg>
