<?xml version="1.0" encoding="utf-8"?>
<!-- Generator: Adobe Illustrator 25.2.1, SVG Export Plug-In . SVG Version: 6.00 Build 0)  -->
<svg version="1.1" id="Layer_1" xmlns="http://www.w3.org/2000/svg" xmlns:xlink="http://www.w3.org/1999/xlink" x="0px" y="0px"
	 viewBox="0 0 86.4 86.4" style="enable-background:new 0 0 86.4 86.4;" xml:space="preserve">
<style type="text/css">
	.st0{fill:#B27742;}
	.st1{fill:#DDDDDD;}
</style>
<path class="st0" d="M57.9,39.9c-0.1-0.3-0.4-0.5-0.7-0.6l-9.1-1.3L44,29.7c-0.1-0.3-0.4-0.5-0.8-0.5l0,0c-0.3,0-0.6,0.2-0.8,0.5
	l-4.1,8.2l-9.1,1.3c-0.3,0-0.6,0.3-0.7,0.6c-0.1,0.3,0,0.7,0.2,0.9l6.6,6.4l-1.6,9.1c-0.1,0.3,0.1,0.6,0.3,0.8
	c0.1,0.1,0.3,0.2,0.5,0.2c0.1,0,0.3,0,0.4-0.1l8.1-4.3l8.1,4.3c0.3,0.2,0.6,0.1,0.9-0.1c0.3-0.2,0.4-0.5,0.3-0.8l-1.6-9.1l6.6-6.4
	C57.9,40.5,58,40.2,57.9,39.9z"/>
<path class="st1" d="M43.2,0C19.4,0,0,19.4,0,43.2c0,23.9,19.4,43.2,43.2,43.2s43.2-19.4,43.2-43.2C86.4,19.4,67.1,0,43.2,0z
	 M43.2,85.1c-23.1,0-41.9-18.8-41.9-41.9c0-23.1,18.8-41.9,41.9-41.9c23.1,0,41.9,18.8,41.9,41.9C85.1,66.4,66.4,85.1,43.2,85.1z"/>
</svg>
