<?xml version="1.0" encoding="utf-8"?>
<!-- Generator: Adobe Illustrator 25.2.1, SVG Export Plug-In . SVG Version: 6.00 Build 0)  -->
<svg version="1.1" id="Layer_1" xmlns="http://www.w3.org/2000/svg" xmlns:xlink="http://www.w3.org/1999/xlink" x="0px" y="0px"
	 viewBox="0 0 86.4 86.4" style="enable-background:new 0 0 86.4 86.4;" xml:space="preserve">
<style type="text/css">
	.st0{fill:#B27742;}
	.st1{fill:#DDDDDD;}
</style>
<g>
	<path class="st0" d="M54.3,41.1v-9.6c0-1.3-1-2.3-2.3-2.3h-9.6c-0.6,0-1.2,0.2-1.6,0.7L28.2,42.4c-0.9,0.9-0.9,2.4,0,3.3l9.6,9.6
		c0.9,0.9,2.4,0.9,3.2,0l12.5-12.5C54.1,42.3,54.3,41.8,54.3,41.1z M48,37.3c-1,0-1.7-0.8-1.7-1.7s0.8-1.7,1.7-1.7
		c1,0,1.7,0.8,1.7,1.7S48.9,37.3,48,37.3z"/>
	<path class="st0" d="M56.6,31.5l0,10.7c0,0.5-0.2,1-0.6,1.4L43.3,56.4l0.2,0.2c0.9,0.9,2.4,0.9,3.2,0l11.5-11.5
		c0.4-0.4,0.7-1,0.7-1.6v-9.6C58.9,32.6,57.9,31.5,56.6,31.5z"/>
</g>
<path class="st1" d="M43.2,0C19.4,0,0,19.4,0,43.2c0,23.9,19.4,43.2,43.2,43.2s43.2-19.4,43.2-43.2C86.4,19.4,67.1,0,43.2,0z
	 M43.2,85.1c-23.1,0-41.9-18.8-41.9-41.9c0-23.1,18.8-41.9,41.9-41.9c23.1,0,41.9,18.8,41.9,41.9C85.1,66.4,66.4,85.1,43.2,85.1z"/>
</svg>
