<?xml version="1.0" encoding="utf-8"?>
<!-- Generator: Adobe Illustrator 25.2.1, SVG Export Plug-In . SVG Version: 6.00 Build 0)  -->
<svg version="1.1" id="Layer_1" xmlns="http://www.w3.org/2000/svg" xmlns:xlink="http://www.w3.org/1999/xlink" x="0px" y="0px"
	 viewBox="-49 141 512 512" style="enable-background:new -49 141 512 512;" xml:space="preserve">
<style type="text/css">
	.st0{fill:#FF9E24;}
	.st1{fill:#FFFFFF;}
	.st2{fill:#181818;}
	.st3{fill:#EE3840;}
	.st4{fill:#524E4D;}
	.st5{fill:#7A7674;}
</style>
<g>
	<circle class="st0" cx="207" cy="397" r="256"/>
	<circle class="st1" cx="207" cy="397" r="207.5"/>
	<path class="st2" d="M293.6,337.8c7.6-7.6,7.6-19.9,0-27.5c-7.6-7.6-19.9-7.6-27.5,0L192.6,384l27.5,27.5L293.6,337.8z"/>
	<path class="st3" d="M195.2,391.6L86,500.8c-4.7,4.7-4.7,12.4,0,17.2c2.4,2.4,5.5,3.6,8.6,3.6c3.1,0,6.2-1.2,8.6-3.6l109.2-109.2
		L195.2,391.6z"/>
	<path class="st2" d="M122.1,284.6c-7.6-7.6-19.9-7.6-27.5,0c-7.6,7.6-7.6,19.9,0,27.5l99.3,99.3l27.5-27.5L122.1,284.6z"/>
	<path class="st4" d="M207,427.3c-16.7,0-30.3-13.6-30.3-30.3c0-16.7,13.6-30.3,30.3-30.3s30.3,13.6,30.3,30.3
		C237.3,413.7,223.7,427.3,207,427.3z"/>
	<g>
		<path class="st5" d="M66.3,409.1H48.1c-6.7,0-12.1-5.4-12.1-12.1s5.4-12.1,12.1-12.1h18.2c6.7,0,12.1,5.4,12.1,12.1
			S73,409.1,66.3,409.1z"/>
		<path class="st5" d="M207,268.4c-6.7,0-12.1-5.4-12.1-12.1v-18.2c0-6.7,5.4-12.1,12.1-12.1c6.7,0,12.1,5.4,12.1,12.1v18.2
			C219.1,263,213.7,268.4,207,268.4z"/>
		<path class="st5" d="M365.9,409.1h-18.2c-6.7,0-12.1-5.4-12.1-12.1s5.4-12.1,12.1-12.1h18.2c6.7,0,12.1,5.4,12.1,12.1
			S372.6,409.1,365.9,409.1z"/>
		<path class="st5" d="M207,568.1c-6.7,0-12.1-5.4-12.1-12.1v-18.2c0-6.7,5.4-12.1,12.1-12.1c6.7,0,12.1,5.4,12.1,12.1v18.2
			C219.1,562.6,213.7,568.1,207,568.1z"/>
	</g>
</g>
</svg>
