<?xml version="1.0" encoding="utf-8"?>
<!-- Generator: Adobe Illustrator 25.2.1, SVG Export Plug-In . SVG Version: 6.00 Build 0)  -->
<svg version="1.1" id="Layer_1" xmlns="http://www.w3.org/2000/svg" xmlns:xlink="http://www.w3.org/1999/xlink" x="0px" y="0px"
	 viewBox="0 0 280.6 21.1" style="enable-background:new 0 0 280.6 21.1;" xml:space="preserve">
<g>
	<path d="M32.3,0l0,5.5c0,0-17.3,0-18.4,0s-4,3.1-3.1,3.1c0.9,0,19.2,0,19.2,0l0,3.9c0,0-15.5,0-16.3,0c-1,0-3.7,3.5-2.6,3.5
		c1,0,21.9,0,21.9,0l0,5.1c0,0-32.2,0-32.8,0c-0.7,0,1-2.8,2.6-5.4c1.4-2.2,3-4.2,3-4.2s-4.9,0-5.4,0c-0.9,0,2.4-4.9,4.4-6.8
		C7.2,2.3,11.5,0,12.3,0C13.1,0,32.3,0,32.3,0z"/>
	<path d="M104,0c-0.2,0,4.4,12.6,9.7,12.6c1.7,0,12.9,0,12.9,0l0-3.9c0,0-8.6,0-9.6,0c-1.5,0-3.6-3.7-4.7-8.7C112.2,0,104.8,0,104,0
		z"/>
	<polygon points="106.1,16.1 129.2,16.1 129.2,0 136.2,0 136.1,21.1 106.1,21.1 	"/>
	<path d="M139,0c0,0,24.9,0,25.3,0c0.4,0,1.8,0.7,3.4,1.9c1.2,0.9,2.3,2.2,2.3,3.3c0,2.4,0,15.9,0,15.9h-6.4c0,0,0-12.1,0-12.6
		c0-0.4,0-1.6-0.1-1.9c-0.1-0.4-0.5-0.8-1.1-1c-0.6-0.2-1.8-0.2-2.5-0.2c-0.6,0-14.1,0-14.1,0l0,15.6H139V0z"/>
	<path d="M203.7,0l0,5.5c0,0-18,0-18.8,0c-0.8,0-3.3,3.2-2.5,3.2c0.8,0,19.2,0,19.2,0l0,3.9c0,0-15.2,0-16.1,0
		c-0.9,0-3.7,3.5-2.9,3.5c0.8,0,22.3,0,22.3,0l0,5c0,0-31.7,0-32.5,0c-0.4,0,0.5-2.7,1.7-5.1c1.2-2.4,3.2-4.5,3.2-4.5s-3.8,0-4.5,0
		c-0.4,0,0.3-3.4,2.9-6.4c2.3-2.8,7.5-5.1,8.1-5.1C185,0,203.7,0,203.7,0z"/>
	<path d="M207.2,0l7.2,0l0,16.1c0,0,6.6,0,7.2,0c0.6,0,1.1,0,1.3-0.6c0.2-0.6,0.1-0.9,0.1-2.5c0-3.2,0-13,0-13h6.4l0,16.1
		c0,0,7,0,8,0c0.7,0,1.1-0.1,1.3-0.6c0.2-0.4,0.2-1.7,0.2-2.6c0-0.7,0-12.9,0-12.9h6.7l0,16.1c0,0,23.6,0,24.3,0
		c1.3,0,1.7-0.8,1.7-1.8c0-0.9-0.4-1.7-1.8-1.7c-0.3,0-21,0-21.8,0c-0.4,0,0.1-4.3,2.7-7.7c2.2-2.9,5.8-4.9,6.9-4.9
		c1.1,0,20.2,0,20.2,0l0,5.5c0,0-17.4,0-18.4,0c-1,0-3.6,3.2-2.8,3.2c0.7,0,20,0,20,0s3.8,2.3,3.8,5.6c0,3.8-1.4,6-4,6.8h-32.8v-2.1
		c0,0-0.4,0.7-1.1,1.2c-0.6,0.4-1.8,0.9-1.8,0.9h-11.3l0-3.2c0,0-1.1,1.3-2.2,2c-1.1,0.7-2.2,1.2-2.2,1.2l-17.8,0L207.2,0z"/>
	<path d="M35.7,21.1c0,0,0-15,0-15.9c0-0.4,1.2-2.3,2.7-3.5C39.9,0.6,40.9,0,42.6,0C44,0,66.8,0,66.8,0l0,16c0,0,23.5,0,24.7,0
		c0.8,0,1.6-0.5,1.6-1.9c0-1.2-0.9-1.6-1.6-1.6c0,0-21.5,0-22.2,0c-0.4,0,0.3-4.2,3-7.7C74.1,2.3,77.5,0,78.5,0c1.2,0,21,0,21,0
		l0,5.5c0,0-18.6,0-19.3,0s-3.1,3.2-2.6,3.2s19.2,0,19.8,0c0.9,0,3.8,2.5,3.8,5.7c0,3.9-3,6.7-3.9,6.7H59.8l0-8.6H42.2l0,8.6
		L35.7,21.1z M43.1,6.5c-0.7,1-0.8,2.2-0.8,2.2h17.6l0-4.5c0,0-12.5,0-13,0C45,4.3,43.9,5.4,43.1,6.5z"/>
</g>
</svg>
