<?xml version="1.0" encoding="utf-8"?>
<!-- Generator: Adobe Illustrator 25.2.1, SVG Export Plug-In . SVG Version: 6.00 Build 0)  -->
<svg version="1.1" id="Layer_1" xmlns="http://www.w3.org/2000/svg" xmlns:xlink="http://www.w3.org/1999/xlink" x="0px" y="0px"
	 viewBox="0 0 605.5 221.1" style="enable-background:new 0 0 605.5 221.1;" xml:space="preserve">
<g>
	<path d="M292.7,0.7l0,33.4c0,0-104.6,0-111.2,0c-6.6,0-24.1,19-18.6,19c5.5,0,116.4,0,116.4,0l0,23.6c0,0-93.6,0-98.6,0
		c-6.2,0-22.1,21.2-16,21.2c6.2,0,132.5,0,132.5,0l0,30.6c0,0-194.6,0-198.7,0c-4.4,0,6.2-16.9,16-32.6
		c8.2-13.2,17.9-25.6,17.9-25.6s-29.4,0-32.7,0c-5.7,0,14.8-29.8,26.3-41c15.1-14.6,41.1-28.6,45.8-28.6
		C176.4,0.8,292.7,0.7,292.7,0.7z"/>
	<path d="M310,0.8c0,0,150.8,0,153,0c2.2,0,11.2,4.4,20.6,11.5c7.5,5.7,13.7,13.4,13.7,19.9c0,14.6,0,96.4,0,96.4h-39
		c0,0,0-73.2,0-76c0-2.6,0.2-9.8-0.4-11.6c-0.7-2.2-3.2-4.9-6.6-5.9c-3.7-1-10.9-1-15.2-1c-3.8,0-85.5,0-85.5,0l0.2,94.5H310V0.8z"
		/>
</g>
<g>
	<path d="M71.2,173.8l0,11.8c0,0-37.1,0-39.4,0s-8.5,6.7-6.6,6.7c1.9,0,41.3,0,41.3,0l0,8.4c0,0-33.2,0-35,0c-2.2,0-7.9,7.5-5.7,7.5
		c2.2,0,47,0,47,0l0,10.9c0,0-69,0-70.5,0c-1.6,0,2.2-6,5.7-11.6c2.9-4.7,6.3-9.1,6.3-9.1s-10.4,0-11.6,0c-2,0,5.3-10.6,9.3-14.5
		c5.4-5.2,14.6-10.1,16.2-10.1C29.9,173.8,71.2,173.8,71.2,173.8z"/>
	<path d="M225,173.8c-0.5,0,9.4,27,20.8,27c3.6,0,27.7,0,27.7,0l0-8.4c0,0-18.4,0-20.7,0c-3.2,0-7.8-7.9-10.1-18.6
		C242.7,173.8,226.7,173.8,225,173.8z"/>
	<polygon points="229.5,208.3 279.1,208.3 279.1,173.8 294.1,173.8 294,219.1 229.5,219.1 	"/>
	<path d="M300.3,173.8c0,0,53.5,0,54.2,0c0.8,0,4,1.5,7.3,4.1c2.7,2,4.8,4.8,4.8,7.1c0,5.2,0,34.2,0,34.2h-13.8c0,0,0-26,0-26.9
		c0-0.9,0.1-3.5-0.1-4.1c-0.2-0.8-1.1-1.7-2.3-2.1c-1.3-0.4-3.9-0.4-5.4-0.4c-1.3,0-30.3,0-30.3,0l0.1,33.5h-14.4V173.8z"/>
	<path d="M438.9,173.8l0,11.7c0,0-38.7,0-40.4,0c-1.7,0-7.1,6.9-5.5,6.9c1.7,0,41.2,0,41.2,0l0,8.4c0,0-32.6,0-34.6,0
		c-2,0-8,7.6-6.3,7.6c1.8,0,47.8,0,47.8,0l0,10.8c0,0-68.1,0-69.8,0c-0.9,0,1-5.7,3.7-10.9c2.6-5.1,6.9-9.7,6.9-9.7s-8.2,0-9.6,0
		c-0.9,0,0.7-7.3,6.1-13.7c5-5.9,16.1-11,17.4-11C398.8,173.8,438.9,173.8,438.9,173.8z"/>
	<path d="M446.5,173.8l15.4,0l0.1,34.5c0,0,14.2,0,15.3,0c1.3,0,2.4,0,2.9-1.2c0.5-1.2,0.3-2,0.3-5.5c0-6.9,0-27.8,0-27.8h13.8
		l0,34.5c0,0,15,0,17.1,0c1.5,0,2.4-0.1,2.9-1.2c0.4-0.9,0.4-3.7,0.4-5.6c0-1.6,0-27.7,0-27.7h14.4l0,34.5c0,0,50.5,0,52.2,0
		c2.8,0,3.7-1.8,3.7-3.9c0-2-0.9-3.6-3.8-3.6c-0.7,0-45.1,0-46.8,0c-0.9,0,0.3-9.3,5.7-16.5c4.8-6.3,12.5-10.5,14.8-10.5
		c2.4,0,43.4,0,43.4,0l0.1,11.8c0,0-37.4,0-39.4,0s-7.6,6.8-6.1,6.8c1.5,0,42.9,0,42.9,0s8.1,4.9,8.1,12.1c0,8.1-3,12.9-8.7,14.6
		h-70.4v-4.4c0,0-0.9,1.4-2.3,2.5c-1.2,0.9-3.9,1.9-3.9,1.9h-24.2l0-7c0,0-2.3,2.8-4.7,4.4c-2.4,1.5-4.8,2.6-4.8,2.6l-38.3,0
		L446.5,173.8z"/>
	<path d="M78.4,219.1c0,0,0-32.3,0-34.1c0-1,2.5-4.9,5.8-7.5c3.2-2.5,5.3-3.6,9-3.6c3.2,0,51.9,0,51.9,0l0,34.4c0,0,50.5,0,53,0
		c1.8,0,3.4-1.2,3.4-4.2c0-2.6-2-3.4-3.4-3.4c0,0-46,0-47.7,0c-0.9,0,0.7-9,6.3-16.5c4.2-5.6,11.4-10.4,13.5-10.4c2.5,0,45,0,45,0
		l0,11.8c0,0-39.9,0-41.3,0c-1.4,0-6.7,6.8-5.7,6.8s41.1,0,42.4,0c1.9,0,8.2,5.5,8.2,12.3c0,8.3-6.5,14.4-8.3,14.4h-80.4l0-18.4
		H92.5l0,18.4L78.4,219.1z M94.3,187.7c-1.5,2.1-1.8,4.7-1.8,4.7h37.7l0-9.7c0,0-26.7,0-27.9,0C98.4,183.1,96.1,185.3,94.3,187.7z"
		/>
</g>
</svg>
