<?xml version="1.0" encoding="utf-8"?>
<!-- Generator: Adobe Illustrator 25.2.1, SVG Export Plug-In . SVG Version: 6.00 Build 0)  -->
<svg version="1.1" id="Layer_1" xmlns="http://www.w3.org/2000/svg" xmlns:xlink="http://www.w3.org/1999/xlink" x="0px" y="0px"
	 viewBox="0 0 135.9 24" style="enable-background:new 0 0 135.9 24;" xml:space="preserve">
<style type="text/css">
	.st0{fill:#3B68A1;}
	.st1{fill:#F26822;}
</style>
<polygon class="st0" points="23.8,0 23.8,6.2 5.9,6.2 5.9,9.2 17.7,9.2 17.7,14.7 5.9,14.7 5.9,18.4 23.4,18.4 23.4,24 4.8,24 0,20 
	0,4.7 5.1,0 "/>
<polygon class="st0" points="79.2,0 79.2,6.2 61.3,6.2 61.3,9.2 73.1,9.2 73.1,14.7 61.3,14.7 61.3,18.4 78.8,18.4 78.8,24 60.2,24 
	55.4,20 55.4,4.7 60.6,0 "/>
<polygon class="st1" points="82.5,0 89,0 89,8.6 96.4,8.6 96.4,4.8 101.1,0 107.2,0 107.2,5.8 103.1,5.8 103.1,18 107.2,18 
	107.2,24 101.3,24 96.4,19.4 96.4,15.7 89,15.7 89,24 82.5,24 "/>
<polygon class="st0" points="109.8,4.6 109.8,19.5 114.6,24 123.5,24 123.5,18.4 115.7,18.4 115.7,6.2 129.9,6.2 129.9,24 135.9,24 
	135.9,5 131.1,0 114.3,0 "/>
<polygon class="st0" points="26.8,0 26.8,18.4 32.2,24 48,24 52.4,19.8 52.4,0 46.9,0 46.9,18.4 43,18.4 43,6.9 36.9,6.9 36.9,18.4 
	33.1,18.4 33.1,0 "/>
</svg>
