<?xml version="1.0" encoding="utf-8"?>
<!-- Generator: Adobe Illustrator 25.2.1, SVG Export Plug-In . SVG Version: 6.00 Build 0)  -->
<svg version="1.1" id="Layer_1" xmlns="http://www.w3.org/2000/svg" xmlns:xlink="http://www.w3.org/1999/xlink" x="0px" y="0px"
	 viewBox="0 0 137.2 25.3" style="enable-background:new 0 0 137.2 25.3;" xml:space="preserve">
<style type="text/css">
	.st0{fill:#3B68A1;}
	.st1{fill:#F26822;}
</style>
<polygon class="st0" points="24.6,0.8 24.6,7 6.7,7 6.7,10 18.5,10 18.5,15.5 6.7,15.5 6.7,19.3 24.2,19.3 24.2,24.8 5.6,24.8 
	0.8,20.8 0.8,5.5 5.9,0.8 "/>
<polygon class="st0" points="80,0.8 80,7 62.1,7 62.1,10 73.9,10 73.9,15.5 62.1,15.5 62.1,19.3 79.6,19.3 79.6,24.8 61,24.8 
	56.2,20.8 56.2,5.5 61.4,0.8 "/>
<polygon class="st1" points="83.3,0.8 89.8,0.8 89.8,9.4 97.2,9.4 97.2,5.6 101.9,0.8 108,0.8 108,6.6 103.9,6.6 103.9,18.8 
	108,18.8 108,24.8 102.1,24.8 97.2,20.2 97.2,16.6 89.8,16.6 89.8,24.8 83.3,24.8 "/>
<polygon class="st0" points="110.6,5.4 110.6,20.3 115.4,24.8 124.3,24.8 124.3,19.3 116.5,19.3 116.5,7 130.7,7 130.7,24.8 
	136.7,24.8 136.7,5.8 131.9,0.8 115.1,0.8 "/>
<polygon class="st0" points="27.6,0.8 27.6,19.3 32.9,24.8 48.8,24.8 53.2,20.6 53.2,0.8 47.7,0.8 47.7,19.3 43.8,19.3 43.8,7.7 
	37.7,7.7 37.7,19.3 33.9,19.3 33.9,0.8 "/>
</svg>
