<?xml version="1.0" encoding="utf-8"?><svg xmlns="http://www.w3.org/2000/svg" viewBox="0 0 25.7 24"><path d="M22.9 0h-2.4v2.4c0 .5-.4.8-.8.8s-.8-.3-.8-.8V0H6.1v2.4c0 .5-.4.8-.8.8s-.8-.3-.8-.8V0H2.1C.9 0 0 1 0 2.4v2.9h25.6V2.4C25.6 1 24.2 0 22.9 0zM0 7v14.6C0 23 .9 24 2.2 24H23c1.3 0 2.7-1 2.7-2.4V7H0zm7.1 13.4H5.2c-.3 0-.6-.2-.6-.6v-2c0-.3.2-.6.6-.6h2c.3 0 .6.2.6.6v2c0 .4-.3.6-.7.6zm0-7.2H5.2c-.3 0-.6-.2-.6-.6v-2c0-.3.2-.6.6-.6h2c.3 0 .6.2.6.6v2c0 .4-.3.6-.7.6zm6.4 7.2h-2c-.3 0-.6-.2-.6-.6v-2c0-.3.2-.6.6-.6h2c.3 0 .6.2.6.6v2c.1.4-.2.6-.6.6zm0-7.2h-2c-.3 0-.6-.2-.6-.6v-2c0-.3.2-.6.6-.6h2c.3 0 .6.2.6.6v2c.1.4-.2.6-.6.6zm6.4 7.2h-2c-.3 0-.6-.2-.6-.6v-2c0-.3.2-.6.6-.6h2c.3 0 .6.2.6.6v2c.1.4-.2.6-.6.6zm0-7.2h-2c-.3 0-.6-.2-.6-.6v-2c0-.3.2-.6.6-.6h2c.3 0 .6.2.6.6v2c.1.4-.2.6-.6.6zm0 0" fill="#0085cc"/></svg>
