<?xml version="1.0" encoding="utf-8"?><svg xmlns="http://www.w3.org/2000/svg" viewBox="0 0 24 24"><path d="M24 7.2V2.4C24 1.1 22.9 0 21.6 0H2.4C1.1 0 0 1.1 0 2.4v4.8h24zm-4.8-4.8c.7 0 1.2.5 1.2 1.2s-.5 1.2-1.2 1.2S18 4.3 18 3.6s.5-1.2 1.2-1.2zm-3.6 0c.7 0 1.2.5 1.2 1.2s-.5 1.2-1.2 1.2-1.2-.5-1.2-1.2.5-1.2 1.2-1.2zm-12 0h6v2.4h-6V2.4zM24 15.6V8.4H0v7.2h24zm-4.8-4.8c.7 0 1.2.5 1.2 1.2s-.5 1.2-1.2 1.2S18 12.7 18 12s.5-1.2 1.2-1.2zm-3.6 0c.7 0 1.2.5 1.2 1.2s-.5 1.2-1.2 1.2-1.2-.5-1.2-1.2.5-1.2 1.2-1.2zm-6 0v2.4h-6v-2.4h6zm-9.6 6v4.8C0 22.9 1.1 24 2.4 24h19.2c1.3 0 2.4-1.1 2.4-2.4v-4.8H0zm9.6 4.8h-6v-2.4h6v2.4zm6 0c-.7 0-1.2-.5-1.2-1.2s.5-1.2 1.2-1.2 1.2.5 1.2 1.2-.5 1.2-1.2 1.2zm3.6 0c-.7 0-1.2-.5-1.2-1.2s.5-1.2 1.2-1.2 1.2.5 1.2 1.2-.5 1.2-1.2 1.2z" fill="#643ba0"/></svg>
