<?xml version="1.0" encoding="utf-8"?><svg xmlns="http://www.w3.org/2000/svg" viewBox="0 0 23.1 24"><path d="M10.2 13.3H2.4c-.6 0-1.1.5-1.1 1.1v8.4c0 .6.5 1.1 1.1 1.1h7.9c.3 0 .3-.3.3-.3v-10c0 .1 0-.3-.4-.3zm10.5 0h-7.8c-.5 0-.4.5-.4.5v9.9s0 .3.3.3h7.9c.6 0 1.1-.5 1.1-1.1v-8.4c0-.7-.5-1.2-1.1-1.2zM10.6 6.7s0-.4-.4-.4H1.1C.5 6.3 0 6.8 0 7.4v3.5c0 .6.5 1.1 1.1 1.1h9.1c.3 0 .3-.3.3-.3v-5zm11.3-.4h-9.1c-.3 0-.3.3-.3.3v5.1s0 .3.4.3h9c.6 0 1.1-.5 1.1-1.1V7.4c.1-.6-.5-1.1-1.1-1.1zM6.8 5.5c-.5 0-1 0-1.4-.1-1-.2-1.8-.6-2.2-1.2-.4-.5-.5-1.2-.4-2C3.1.8 4 0 5.4 0c.3 0 .6 0 1 .1.9.2 2 .7 3 1.4 1.7 1.1 1.8 1.9 1.7 2.3-.1.6-.7 1.1-1.8 1.4-.8.2-1.7.3-2.5.3zM5.4 1.8c-.5 0-.7.2-.8.7-.1.4 0 .6.1.6.1.2.5.4 1.1.5.3.1.7.1 1 .1.9 0 1.6-.1 2.1-.3 0 0 .1-.1 0-.1-.6-.5-1.8-1.2-2.9-1.4-.2-.1-.4-.1-.6-.1zm10.9 3.7c-.9 0-1.8-.1-2.5-.3-1.1-.3-1.7-.8-1.8-1.4-.1-.4 0-1.2 1.7-2.3 1-.7 2.1-1.2 3-1.4.3-.1.7-.1 1-.1 1.4 0 2.3.8 2.6 2.1.2.8 0 1.5-.4 2-.4.6-1.2 1-2.2 1.2-.4.1-.9.2-1.4.2zm-2.1-2.2c-.1 0-.1.1 0 0 .5.2 1.3.4 2.1.4.4 0 .8 0 1-.1.5-.1.9-.3 1.1-.5 0 0 .1-.2.1-.6-.1-.5-.3-.7-.8-.7-.2 0-.4 0-.6.1-1.1.2-2.3.9-2.9 1.4zm0 0" fill="#ff488e"/></svg>
