<?xml version="1.0" encoding="utf-8"?><svg version="1.1" id="Layer_1" xmlns="http://www.w3.org/2000/svg" x="0" y="0" viewBox="0 0 24 24" xml:space="preserve"><path d="M5.6 24C2.5 24 0 21.5 0 18.4c0-1.5.6-2.9 1.6-4l5.1-5.1c1-1.1 2.5-1.6 4-1.6 1.1 0 2.1.3 3 .9.3.2.7.5.9.8.3.3.5.8.5 1.2 0 .4-.2.7-.5 1-.6.6-1.6.6-2.2 0-.9-.9-2.5-.9-3.4 0l-5.1 5.1c-.9.9-.9 2.5 0 3.4.9.9 2.5.9 3.4 0l3-3c.1-.1.3-.1.4-.1.8.3 1.7.5 2.6.5h.2c.2 0 .4.2.4.4 0 .1 0 .2-.1.3l-4.2 4.2c-1.1 1-2.5 1.6-4 1.6z"/><path d="M13.3 16.3H13c-.2 0-.4 0-.6-.1-.2 0-.3-.1-.5-.1l-.2-.1c-.1 0-.2-.1-.3-.1-.1 0-.2-.1-.3-.1s-.2-.1-.3-.1c-.6-.3-1.1-.7-1.6-1.1-.3-.3-.5-.8-.5-1.2 0-.4.2-.7.5-1 .6-.6 1.6-.6 2.2 0 .9.9 2.5.9 3.4 0l1.3-1.3 3.8-3.7c.9-.9.9-2.5 0-3.4s-2.5-.9-3.4 0l-3 3c.1 0-.1.1-.3 0-.8-.3-1.7-.5-2.6-.5h-.1c-.2 0-.3-.1-.4-.2-.1-.2 0-.3.1-.4l4.2-4.2c2.2-2.2 5.7-2.2 7.9 0s2.2 5.7 0 7.9l-5.1 5.1c-.7.7-1.6 1.2-2.6 1.5h-1l-.3.1z"/></svg>
