<?xml version="1.0" encoding="utf-8"?><svg version="1.1" id="Layer_1" xmlns="http://www.w3.org/2000/svg" x="0" y="0" viewBox="0 0 27.8 24" xml:space="preserve"><path class="st0" d="M13.1 0C10 .2 7 1.4 4.7 3.5l3.6 3.6c1.4-1.1 3-1.8 4.8-2V0zm0 0M7.1 8.3L3.5 4.6C1.4 7 .2 9.9 0 13.1h5.1c.2-1.8.9-3.4 2-4.8zm0 0M22.7 13.1h5.1c-.2-3.1-1.4-6.1-3.5-8.4l-3.6 3.6c1.1 1.4 1.8 3 2 4.8zm0 0M22.7 14.7c-.1 1.3-.5 2.3-.9 3.1l1 1.5c.6 1 .5 2.2-.3 3-.2.2-.4.4-.7.5l.8.8c.2.2.4.2.6.2.2 0 .4-.1.6-.2 2.4-2.4 3.9-5.6 4.1-9h-5.2zm0 0M5.1 14.7H0c.2 3.4 1.6 6.6 4.1 9 .1.2.3.3.5.3s.4-.1.6-.2l2.5-2.5c.3-.3.3-.8 0-1.2-.7-.6-2.3-2.4-2.6-5.4zm0 0M23.2 3.5C20.8 1.4 17.9.2 14.8 0v5.1c1.8.2 3.4.9 4.8 2l3.6-3.6zm0 0M15.7 12.1c-1-1-2.6-1-3.6 0s-1 2.6 0 3.6c1.3 1.3 7.5 5.2 8.2 5.7.3.2.7.2 1-.1.3-.3.3-.7.1-1-.5-.7-4.4-6.9-5.7-8.2zm0 0"/></svg>
