<?xml version="1.0" encoding="utf-8"?>
<svg xmlns="http://www.w3.org/2000/svg" viewBox="0 0 19.7 19.7">
  <path fill="#b27742" d="M10 1c-5 0-9 4-9 9s4 9 9 9 9-4 9-9-4-9-9-9zm6.2 5.4h-2.7c-.3-1.1-.7-2.2-1.2-3.2 1.7.6 3.1 1.7 3.9 3.2zM10 2.8c.8 1.1 1.3 2.3 1.7 3.6H8.3c.4-1.3.9-2.5 1.7-3.6zm-7 9c-.1-.6-.2-1.2-.2-1.8s.1-1.2.2-1.8h3c0 .6-.1 1.2-.1 1.8s0 1.2.1 1.8H3zm.8 1.8h2.7c.3 1.1.7 2.2 1.2 3.2-1.7-.6-3.1-1.7-3.9-3.2zm2.6-7.2H3.8C4.6 4.9 6 3.8 7.7 3.2c-.6 1-1 2.1-1.3 3.2zM10 17.2c-.7-1.1-1.3-2.3-1.7-3.6h3.4c-.4 1.3-1 2.5-1.7 3.6zm2.1-5.4H7.9c-.1-.6-.1-1.2-.1-1.8s.1-1.2.1-1.8h4.2c.1.6.1 1.2.1 1.8s0 1.2-.1 1.8zm.2 5c.5-1 .9-2.1 1.2-3.2h2.7c-.8 1.5-2.2 2.6-3.9 3.2zm1.6-5c.1-.6.1-1.2.1-1.8s0-1.2-.1-1.8h3c.1.6.2 1.2.2 1.8s-.1 1.2-.2 1.8h-3z"/>
</svg>
