<?xml version="1.0" encoding="utf-8"?>
<!-- Generator: Adobe Illustrator 25.2.1, SVG Export Plug-In . SVG Version: 6.00 Build 0)  -->
<svg version="1.1" id="Layer_1" xmlns="http://www.w3.org/2000/svg" xmlns:xlink="http://www.w3.org/1999/xlink" x="0px" y="0px"
	 viewBox="0 0 124.8 23.7" style="enable-background:new 0 0 124.8 23.7;" xml:space="preserve">
<style type="text/css">
	.st0{fill:#1C3F73;}
	.st1{fill:#FFFFFF;}
</style>
<g>
	<polygon class="st0" points="39.3,15.1 36.5,15.1 32.6,10.4 32.6,15.1 30.6,15.1 30.6,8.6 33.5,8.6 37.4,13.3 37.4,8.6 39.3,8.6 	
		"/>
	<polygon class="st0" points="47.4,10.2 42.4,10.2 42.4,11.2 47.1,11.2 47.1,12.5 42.4,12.5 42.4,13.5 47.5,13.5 47.5,15.1 
		40.4,15.1 40.4,8.6 47.4,8.6 	"/>
	<polygon class="st0" points="52.2,15.1 49.9,15.1 47.8,8.6 49.8,8.6 51.1,13.2 52.8,8.6 54.6,8.6 56.1,13.2 57.6,8.6 59.5,8.6 
		57.4,15.1 55.2,15.1 53.7,10.6 	"/>
	<path class="st0" d="M59.7,12.9l1.9,0V13c0,0.2,0.1,0.4,0.2,0.5c0.1,0.1,0.4,0.1,0.7,0.1h2.5c0.2,0,0.4,0,0.5-0.1
		c0.1-0.1,0.2-0.2,0.2-0.4c0-0.2-0.1-0.3-0.2-0.4c-0.1-0.1-0.4-0.1-0.8-0.2l-3.1-0.1c-0.8,0-1.3-0.2-1.6-0.4
		c-0.3-0.3-0.4-0.8-0.4-1.5c0-0.4,0-0.7,0.1-0.9C59.9,9.4,60,9.2,60.2,9c0.2-0.2,0.4-0.3,0.7-0.4c0.3-0.1,0.8-0.1,1.5-0.1h3
		c0.7,0,1.3,0.1,1.6,0.4c0.3,0.3,0.5,0.7,0.5,1.3c0,0,0,0.1,0,0.1c0,0,0,0.1,0,0.2h-1.9v0c0-0.2-0.1-0.4-0.2-0.5
		c-0.1-0.1-0.3-0.2-0.5-0.2h-2.3c-0.4,0-0.6,0-0.7,0.1c-0.1,0.1-0.2,0.2-0.2,0.4c0,0.2,0.1,0.3,0.2,0.4c0.1,0.1,0.3,0.1,0.6,0.2
		l3.2,0.1c0.7,0,1.3,0.2,1.6,0.5c0.3,0.3,0.5,0.8,0.5,1.6c0,0.4-0.1,0.8-0.2,1c-0.1,0.2-0.3,0.5-0.6,0.6c-0.2,0.1-0.4,0.2-0.7,0.2
		c-0.3,0-0.7,0.1-1.3,0.1h-2.6c-1.1,0-1.8-0.1-2.2-0.4c-0.4-0.2-0.5-0.7-0.5-1.3c0,0,0-0.1,0-0.2C59.7,13.1,59.7,13,59.7,12.9"/>
	<polygon class="st0" points="70.6,15.1 68.7,15.1 68.7,8.6 70.6,8.6 70.6,11 74.7,11 74.7,8.6 76.6,8.6 76.6,15.1 74.7,15.1 
		74.7,12.5 70.6,12.5 	"/>
	<path class="st0" d="M80.8,15.1c-0.8,0-1.3,0-1.7-0.1c-0.3-0.1-0.6-0.2-0.9-0.3c-0.2-0.2-0.4-0.4-0.5-0.7c-0.1-0.3-0.2-0.7-0.2-1.2
		V11c0-0.5,0.1-1,0.2-1.3C77.9,9.4,78,9.2,78.3,9c0.2-0.2,0.5-0.3,0.9-0.3c0.4-0.1,0.9-0.1,1.6-0.1h2.3c0.7,0,1.3,0,1.6,0.1
		c0.4,0.1,0.6,0.2,0.9,0.3c0.2,0.2,0.4,0.4,0.5,0.7c0.1,0.3,0.2,0.7,0.2,1.2v1.8c0,0.5-0.1,0.9-0.2,1.2c-0.1,0.3-0.3,0.6-0.5,0.7
		c-0.2,0.2-0.5,0.3-0.9,0.3c-0.4,0.1-0.9,0.1-1.6,0.1H80.8z M81.3,13.5h1.3c0.7,0,1.2-0.1,1.4-0.3c0.2-0.2,0.3-0.5,0.3-1v-0.9
		c0-0.5-0.1-0.8-0.3-1c-0.2-0.2-0.7-0.3-1.4-0.3h-1.3c-0.7,0-1.2,0.1-1.4,0.3c-0.2,0.2-0.3,0.5-0.3,1v0.9c0,0.5,0.1,0.8,0.3,1
		C80.2,13.4,80.6,13.5,81.3,13.5"/>
	<path class="st0" d="M87.2,12.9l1.9,0V13c0,0.2,0.1,0.4,0.2,0.5c0.1,0.1,0.4,0.1,0.7,0.1h2.5c0.2,0,0.4,0,0.5-0.1
		c0.1-0.1,0.2-0.2,0.2-0.4c0-0.2-0.1-0.3-0.2-0.4c-0.1-0.1-0.4-0.1-0.8-0.2l-3.1-0.1c-0.8,0-1.3-0.2-1.6-0.4
		c-0.3-0.3-0.4-0.8-0.4-1.5c0-0.4,0-0.7,0.1-0.9c0.1-0.2,0.2-0.4,0.3-0.6c0.2-0.2,0.4-0.3,0.7-0.4c0.3-0.1,0.8-0.1,1.5-0.1h3
		c0.7,0,1.3,0.1,1.6,0.4c0.3,0.3,0.5,0.7,0.5,1.3c0,0,0,0.1,0,0.1c0,0,0,0.1,0,0.2H93v0c0-0.2-0.1-0.4-0.2-0.5
		c-0.1-0.1-0.3-0.2-0.5-0.2h-2.3c-0.4,0-0.6,0-0.7,0.1c-0.1,0.1-0.2,0.2-0.2,0.4c0,0.2,0.1,0.3,0.2,0.4c0.1,0.1,0.3,0.1,0.6,0.2
		l3.2,0.1c0.7,0,1.3,0.2,1.6,0.5c0.3,0.3,0.5,0.8,0.5,1.6c0,0.4-0.1,0.8-0.2,1c-0.1,0.2-0.3,0.5-0.6,0.6c-0.2,0.1-0.4,0.2-0.7,0.2
		c-0.3,0-0.7,0.1-1.3,0.1h-2.6c-1.1,0-1.8-0.1-2.2-0.4c-0.4-0.2-0.5-0.7-0.5-1.3c0,0,0-0.1,0-0.2C87.2,13.1,87.2,13,87.2,12.9"/>
	<polygon class="st0" points="100.3,15.1 98.4,15.1 98.4,10.2 95.7,10.2 95.7,8.6 103,8.6 103,10.2 100.3,10.2 	"/>
	<rect x="103.8" y="8.6" class="st0" width="2" height="6.4"/>
	<polygon class="st0" points="115.6,15.1 112.7,15.1 108.9,10.4 108.9,15.1 106.9,15.1 106.9,8.6 109.8,8.6 113.7,13.3 113.7,8.6 
		115.6,8.6 	"/>
	<path class="st0" d="M122.8,10.9L122.8,10.9c0-0.3-0.1-0.5-0.3-0.6c-0.2-0.1-0.6-0.2-1.2-0.2h-1.1c-0.7,0-1.1,0.1-1.3,0.2
		c-0.2,0.2-0.3,0.5-0.3,1v0.9c0,0.5,0.1,0.8,0.3,1c0.2,0.2,0.6,0.3,1.3,0.3h1.1c0.6,0,1-0.1,1.2-0.2c0.2-0.1,0.3-0.3,0.3-0.5
		c0,0,0-0.1,0-0.2v0h-2.3v-1.3h4.4v2.1c0,0.6-0.2,1-0.7,1.3c-0.4,0.3-1.2,0.4-2.3,0.4h-2.2c-0.7,0-1.2,0-1.5-0.1
		c-0.3-0.1-0.6-0.2-0.8-0.4c-0.3-0.2-0.4-0.5-0.6-0.8c-0.1-0.3-0.2-0.7-0.2-1.1V11c0-0.9,0.2-1.6,0.7-1.9c0.4-0.4,1.2-0.5,2.4-0.5
		h2.2c0.7,0,1.2,0,1.6,0.1c0.3,0.1,0.6,0.2,0.8,0.3c0.2,0.2,0.4,0.4,0.4,0.6c0.1,0.3,0.1,0.6,0.1,1c0,0.1,0,0.2,0,0.2
		c0,0.1,0,0.1,0,0.1H122.8z"/>
</g>
<g>
	<path class="st0" d="M23.7,11.8c0,6.5-5.3,11.8-11.8,11.8C5.3,23.7,0,18.4,0,11.8S5.3,0,11.8,0C18.4,0,23.7,5.3,23.7,11.8"/>
	<polygon class="st1" points="15.1,9.3 18.2,9.3 11.8,3 5.5,9.3 8.6,9.3 8.6,14.4 5.5,14.4 11.8,20.7 18.2,14.4 15.1,14.4 	"/>
</g>
</svg>
