<?xml version="1.0" encoding="utf-8"?>
<!-- Generator: Adobe Illustrator 25.2.1, SVG Export Plug-In . SVG Version: 6.00 Build 0)  -->
<svg version="1.1" id="Layer_1" xmlns="http://www.w3.org/2000/svg" xmlns:xlink="http://www.w3.org/1999/xlink" x="0px" y="0px"
	 viewBox="0 0 1800 1178.5" style="enable-background:new 0 0 1800 1178.5;" xml:space="preserve">
<style type="text/css">
	.st0{fill:#1C3F73;}
	.st1{fill:#FFFFFF;}
</style>
<g>
	<polygon class="st0" points="174.1,1155.8 119.8,1155.8 47,1067.4 47,1155.8 9.9,1155.8 9.9,1034.3 64.8,1034.3 137.2,1123.4 
		137.2,1034.3 174.1,1034.3 	"/>
	<polygon class="st0" points="326.6,1063.9 230.9,1063.9 230.9,1082.3 321,1082.3 321,1107.8 230.9,1107.8 230.9,1126.4 
		328.1,1126.4 328.1,1155.8 193.9,1155.8 193.9,1034.3 326.6,1034.3 	"/>
	<polygon class="st0" points="415.6,1155.8 373.1,1155.8 334.3,1034.3 371.3,1034.3 396.3,1120.7 427.4,1034.3 461.5,1034.3 
		490.8,1120.7 517.6,1034.3 554.5,1034.3 513.9,1155.8 472.2,1155.8 444.1,1072.1 	"/>
	<path class="st0" d="M558.2,1115.4l36.6-0.1v2.2c0,4.6,1.1,7.7,3.3,9.3c2.2,1.6,6.9,2.4,14,2.4h46.6c4.6,0,7.8-0.8,9.8-2.3
		c2-1.6,2.9-4.1,2.9-7.7c0-3.6-1.1-6.3-3.4-7.8c-2.3-1.6-7.1-2.6-14.6-3.2l-58.2-1.3c-14.6-0.4-24.4-3.2-29.6-8.3
		c-5.1-5.1-7.7-14.4-7.7-27.9c0-7,0.7-12.7,2-17.2c1.4-4.5,3.5-8.3,6.5-11.3c3.5-3.4,8.2-5.8,13.9-7.2c5.7-1.4,15-2.1,27.9-2.1H665
		c14,0,24.1,2.6,30.3,7.7c6.2,5.1,9.3,13.4,9.3,24.9c0,0.8,0,1.6,0,2.4c0,0.9-0.1,2.3-0.3,4.2h-35.7v-0.5c0-4-1-7-3.1-9.1
		c-2-2-5.1-3-9.2-3h-42.7c-7.1,0-11.8,0.7-14.1,2.1c-2.3,1.4-3.4,3.9-3.4,7.4c0,3.5,1,6,3.1,7.5c2.1,1.5,5.9,2.5,11.4,3l61,1
		c13.9,0.4,23.7,3.5,29.4,9.4c5.7,5.9,8.5,15.9,8.5,30.1c0,8.4-1,15-3.1,19.6c-2.1,4.6-5.6,8.6-10.6,11.8c-3.3,2.1-7.7,3.6-13.3,4.4
		c-5.6,0.9-13.7,1.4-24.3,1.4h-49.4c-20.3,0-33.8-2.3-40.7-6.8c-6.9-4.5-10.3-13-10.3-25.4c0-0.7,0-1.9,0.1-3.5
		C557.9,1119.8,558,1117.8,558.2,1115.4"/>
	<polygon class="st0" points="763.8,1155.8 726.8,1155.8 726.8,1034.3 763.8,1034.3 763.8,1078.9 839.8,1078.9 839.8,1034.3 
		877.1,1034.3 877.1,1155.8 839.8,1155.8 839.8,1108.3 763.8,1108.3 	"/>
	<path class="st0" d="M955.6,1157.2c-14.2,0-24.6-0.6-31.2-1.9c-6.6-1.3-11.9-3.5-16.1-6.6c-4.7-3.5-8-8-10.1-13.7
		c-2.1-5.6-3.1-13.1-3.1-22.4v-33.1c0-10.2,1-18.2,3.1-24.1c2.1-5.9,5.4-10.6,10.1-14.1c4.1-3.1,9.5-5.2,16.3-6.5
		c6.8-1.3,17-2,30.8-2h43.6c13.8,0,24.1,0.7,31,2c6.8,1.3,12.2,3.5,16.3,6.5c4.5,3.4,7.8,8.1,9.9,14c2.1,5.9,3.1,13.5,3.1,22.8v33.9
		c0,9.4-1,17-3.1,22.8c-2.1,5.8-5.4,10.5-9.9,14c-4.1,3.1-9.5,5.3-16.2,6.6c-6.7,1.3-17.1,1.9-31.1,1.9H955.6z M965.6,1126.9h23.6
		c13.1,0,21.8-1.6,26.1-4.9c4.3-3.3,6.4-9.4,6.4-18.3v-17.2c0-8.9-2.2-15-6.4-18.3c-4.3-3.3-13-4.9-26.1-4.9h-23.7
		c-13.4,0-22.2,1.7-26.3,5c-4.2,3.3-6.2,9.6-6.2,18.9v16.9c0,8.8,2.2,14.8,6.6,18C943.8,1125.3,952.6,1126.9,965.6,1126.9"/>
	<path class="st0" d="M1075.9,1115.4l36.6-0.1v2.2c0,4.6,1.1,7.7,3.3,9.3c2.2,1.6,6.9,2.4,14,2.4h46.6c4.6,0,7.8-0.8,9.8-2.3
		c2-1.6,2.9-4.1,2.9-7.7c0-3.6-1.1-6.3-3.4-7.8c-2.3-1.6-7.1-2.6-14.6-3.2l-58.2-1.3c-14.6-0.4-24.4-3.2-29.6-8.3
		c-5.1-5.1-7.7-14.4-7.7-27.9c0-7,0.7-12.7,2-17.2c1.4-4.5,3.5-8.3,6.5-11.3c3.5-3.4,8.2-5.8,13.9-7.2c5.7-1.4,15-2.1,27.9-2.1h56.6
		c14,0,24.1,2.6,30.3,7.7c6.2,5.1,9.3,13.4,9.3,24.9c0,0.8,0,1.6,0,2.4c0,0.9-0.1,2.3-0.3,4.2h-35.7v-0.5c0-4-1-7-3.1-9.1
		c-2-2-5.1-3-9.2-3h-42.7c-7.1,0-11.8,0.7-14.1,2.1c-2.3,1.4-3.4,3.9-3.4,7.4c0,3.5,1,6,3.1,7.5c2.1,1.5,5.9,2.5,11.4,3l61,1
		c13.9,0.4,23.7,3.5,29.4,9.4c5.7,5.9,8.5,15.9,8.5,30.1c0,8.4-1,15-3.1,19.6c-2.1,4.6-5.6,8.6-10.6,11.8c-3.3,2.1-7.7,3.6-13.3,4.4
		c-5.6,0.9-13.7,1.4-24.3,1.4h-49.4c-20.3,0-33.8-2.3-40.7-6.8c-6.9-4.5-10.3-13-10.3-25.4c0-0.7,0-1.9,0.1-3.5
		C1075.6,1119.8,1075.7,1117.8,1075.9,1115.4"/>
	<polygon class="st0" points="1323.7,1155.8 1286.7,1155.8 1286.7,1064.1 1235.9,1064.1 1235.9,1034.3 1374.6,1034.3 1374.6,1064.1 
		1323.7,1064.1 	"/>
	<rect x="1388.2" y="1034.3" class="st0" width="37.1" height="121.5"/>
	<polygon class="st0" points="1611.8,1155.8 1557.5,1155.8 1484.6,1067.4 1484.6,1155.8 1447.6,1155.8 1447.6,1034.3 1502.5,1034.3 
		1574.9,1123.4 1574.9,1034.3 1611.8,1034.3 	"/>
	<path class="st0" d="M1746.6,1078.1v-0.3c0-5.6-1.7-9.4-5.1-11.5c-3.4-2.1-11-3.1-22.8-3.1h-21.6c-12.7,0-20.8,1.5-24.4,4.6
		c-3.6,3-5.3,9.5-5.3,19.3v16.9c0,8.8,2,14.8,6,18c4,3.3,12,4.9,23.8,4.9h21.5c10.7,0,18-1,22-2.9c4-1.9,6-5.3,6-10
		c0-0.7-0.1-1.7-0.3-3.3v-0.4h-43.6v-24.6h82.2v39.9c0,11.4-4.2,19.5-12.7,24.3c-8.5,4.8-23.2,7.2-44.2,7.2h-41.3
		c-12.7,0-22-0.7-28.1-2c-6-1.4-11.1-3.7-15.3-6.9c-4.9-3.9-8.5-8.6-10.7-14.2c-2.2-5.6-3.4-12.7-3.4-21.3v-33.1
		c0-17.4,4.1-29.5,12.4-36.4c8.2-6.9,23.2-10.3,44.9-10.3h41.4c13.4,0,23.2,0.6,29.6,1.8c6.4,1.2,11.4,3.2,15,6
		c3.8,2.9,6.6,6.9,8.4,11.9c1.8,5,2.7,11.2,2.7,18.7c0,1.8,0,3.2,0,4.2c0,1-0.1,1.9-0.1,2.7H1746.6z"/>
</g>
<g>
	<path class="st0" d="M1300.8,428.3c0,222.8-180.6,403.3-403.3,403.3c-222.8,0-403.4-180.6-403.4-403.3S674.7,25,897.5,25
		C1120.3,25,1300.8,205.6,1300.8,428.3"/>
	<polygon class="st1" points="1009.1,341.2 1114.4,341.2 897.5,126 680.6,341.2 785.9,341.2 785.9,515.4 680.6,515.4 897.5,730.6 
		1114.4,515.4 1009.1,515.4 	"/>
</g>
</svg>
