<?xml version="1.0" encoding="utf-8"?>
<!-- Generator: Adobe Illustrator 25.2.1, SVG Export Plug-In . SVG Version: 6.00 Build 0)  -->
<svg version="1.1" id="layer" xmlns="http://www.w3.org/2000/svg" xmlns:xlink="http://www.w3.org/1999/xlink" x="0px" y="0px"
	 viewBox="0 0 600 96.9" style="enable-background:new 0 0 600 96.9;" xml:space="preserve">
<style type="text/css">
	.st0{fill:#FFFFFF;}
	.st1{fill:#E6248A;}
</style>
<path class="st0" d="M50.3,37.5H35.8v33c0,5.6,3.2,6.8,8.5,6.8c2,0,4-0.4,6-0.4v17.3c-4.4,0-8.9,0.8-12.9,0.8C17.3,95,12,89,12,69.2
	V37.4H0V21.7h12.1V0h23.8v21.7h14.5L50.3,37.5L50.3,37.5z"/>
<path class="st0" d="M124.5,64c1.2-24.6-11.7-44.3-37.9-44.3c-21.4,0-39.1,16.2-39.1,38.3c0,24.6,16.1,38.7,39.9,38.7
	c16.1,0,31.8-7.3,35.8-24.2h-22.1c-2.4,5.3-8.1,8.1-13.7,8.1c-10.1,0-15.7-6.4-16.1-16.5V64H124.5z M86.6,35.9
	c8.1,0,13.7,6.8,14.1,14.9H71.3C72.5,41.9,78.1,35.9,86.6,35.9z"/>
<path class="st0" d="M176.8,48.4c0-6-5.6-10.5-11.7-10.5c-13.3,0-15.3,11.3-15.3,21.3c0,9.3,4,18.9,14.1,18.9
	c8.5,0,12.5-4.8,13.7-12.5h23c-2,19.7-16.9,31-36.2,31c-21.7,0-38.3-14.9-38.3-37c0-23,14.5-39.5,38.3-39.5
	c18.1,0,34.2,9.7,35.8,28.6h-23.4L176.8,48.4z"/>
<path class="st0" d="M201.3,0.1h23.8v31.8h0.4c3.6-7.2,13.3-12.1,22.1-12.1c24.2,0,26.2,17.7,26.2,28.2v46.7H250v-35
	c0-10.1,1.2-20.1-12.1-20.1c-8.9,0-12.9,7.7-12.9,15.7v39.5h-23.8L201.3,0.1L201.3,0.1z"/>
<path class="st0" d="M275.8,21.8h23v12.9h0.4c3.6-9.3,11.7-14.1,21.7-14.1c2,0,3.6,0,5.6,0.4v21.7c-3.2-0.8-6-1.2-9.3-1.2
	c-11.7,0-17.7,8.1-17.7,17.3v35.8h-23.8C275.8,94.7,275.8,21.8,275.8,21.8z"/>
<g>
	<path class="st0" d="M326.6,44.4c0-0.1,0-0.1,0-0.2h-0.1L326.6,44.4z"/>
	<path class="st0" d="M394.7,75.9V44.1c0-20.6-16.5-24.2-33.8-24.2c-8.1,0-16.6,1.6-23,5.2c-6.5,3.6-10.8,9.5-11.3,19.1h21.6
		c1.2-6.5,5.7-9.3,12.1-9.3c5.3,0,11.7,2.1,11.7,7.7c0,4.4-2.4,6-6.4,6.8c-16.5,3.7-42.3,1.6-42.3,25.4c0,15.3,11.3,22.1,25,22.1
		c8.9,0,17.8-2.5,24.2-9.3c0,2.4,0.4,4.4,1.2,6.8h23.8C394.7,88.8,394.7,81.9,394.7,75.9z M357.2,82.2c-5.3,0-9.7-2.4-9.7-8
		c0-5.7,4.5-8.1,9.7-9.3c4.8-1.6,11.3-2,14.5-4C372.5,75.8,368.5,82.2,357.2,82.2z"/>
</g>
<path class="st0" d="M447.7,0.1v30.2h-0.4c-4.8-6.9-11.6-10.1-20.5-10.1c-20.5,0-30.6,17.7-30.6,36.6c0,20.2,9.6,39.9,32.6,39.9
	c7.9,0.1,15.4-3.8,19.7-10.5h0.4v8.5h22.6V0.1H447.7z M434.5,78.6c-10.9,0-14.5-10.8-14.5-20.9c0-9.3,3.6-19.8,14.5-19.3
	c10.5,0,14.1,9.6,14.1,20.1C448.6,67.7,446.2,78.6,434.5,78.6z"/>
<g>
	<path class="st0" d="M475.1,44.4h0.1c0-0.1,0-0.1,0-0.2h-0.1V44.4z"/>
	<path class="st0" d="M543.3,75.9V44.1c0-20.6-16.5-24.2-33.8-24.2c-8.1,0-16.6,1.6-23,5.2c-6.5,3.6-10.8,9.5-11.3,19.1h21.6
		c1.2-6.5,5.7-9.3,12.1-9.3c5.3,0,11.7,2.1,11.7,7.7c0,4.4-2.4,6-6.4,6.8c-16.5,3.7-42.3,1.6-42.3,25.4c0,15.3,11.3,22.1,25,22.1
		c8.5,0,17.8-2.5,24.2-9.3c0,2.4,0.4,4.4,1.2,6.8h23.8C543.3,88.8,543.3,81.9,543.3,75.9z M505.8,82.2c-5.3,0-10.1-2.4-9.7-8
		c0-5.7,4.5-8.1,9.7-9.3c4.8-1.6,11.3-2,14.5-4C521.1,75.8,517.1,82.2,505.8,82.2z"/>
</g>
<path class="st0" d="M546.8,21.8h23v12.9h0.4c3.6-9.3,11.7-14.1,21.7-14.1c2,0,6,0,8.1,0.4v21.7c-3.2-0.8-8.1-1.2-11.3-1.2
	c-11.7,0-17.7,8.1-17.7,17.3v35.8h-23.8V21.7h-0.4V21.8z"/>
<path class="st1" d="M576.2,70.9H600v23.8h-23.8V70.9z"/>
</svg>
