<?xml version="1.0" encoding="utf-8"?>
<!-- Generator: Adobe Illustrator 25.2.1, SVG Export Plug-In . SVG Version: 6.00 Build 0)  -->
<svg version="1.1" id="Layer_1" xmlns="http://www.w3.org/2000/svg" xmlns:xlink="http://www.w3.org/1999/xlink" x="0px" y="0px"
	 viewBox="0 0 196.7 78.7" style="enable-background:new 0 0 196.7 78.7;" xml:space="preserve">
<style type="text/css">
	.st0{fill:#00B67A;}
	.st1{fill:#005128;}
</style>
<path class="st0" d="M138.7,0H121v35.3h17.7h17.7V0H138.7z M144,22.5L144,22.5l2.2,7l-7.5-5.6l0,0l-7.6,5.6l2.9-9l-7.6-5.6l9.3,0
	l2.9-9l0,0l2.9,9h9.3l-7.6,5.6l-4.7,3.4L144,22.5z"/>
<path class="st0" d="M179,0h-17.7v35.3H179h17.7V0H179z M184.3,22.5L184.3,22.5l2.2,7l-7.5-5.6l0,0l-7.6,5.6l2.9-9l-7.6-5.6l9.3,0
	l2.9-9l0,0l2.9,9h9.3l-7.6,5.6l-4.7,3.4L184.3,22.5z"/>
<path class="st0" d="M98.3,0H80.7v35.3h17.7H116V0H98.3z M103.6,22.5L103.6,22.5l2.2,7l-7.5-5.6l0,0l-7.6,5.6l2.9-9l-7.6-5.6l9.3,0
	l2.9-9l0,0l2.9,9h9.3l-7.6,5.6l-4.7,3.4L103.6,22.5z"/>
<path class="st0" d="M58,0H40.3v35.3H58h17.7V0H58z M63.3,22.5L63.3,22.5l2.2,7L58,23.9l0,0l-7.6,5.6l2.9-9l-7.6-5.6l9.3,0l2.9-9
	l0,0l2.9,9h9.3l-7.6,5.6L58,23.9L63.3,22.5z"/>
<path class="st0" d="M17.7,0H0v35.3h17.7h17.7V0H17.7z M23,22.5L23,22.5l2.2,7l-7.5-5.6l0,0l-7.6,5.6l2.9-9l-7.6-5.6l9.3,0l2.9-9
	l0,0l2.9,9h9.3l-7.6,5.6l-4.7,3.4L23,22.5z"/>
<g>
	<path d="M67.6,58.1h13.1v2.4h-5.2v13.8h-2.8V60.6h-5.1L67.6,58.1z M80.1,62.6h2.4v2.3h0c0.1-0.3,0.2-0.6,0.5-0.9
		c0.2-0.3,0.5-0.6,0.8-0.8c0.3-0.3,0.6-0.5,1-0.6c0.4-0.2,0.8-0.2,1.1-0.2c0.3,0,0.5,0,0.6,0c0.1,0,0.2,0,0.3,0v2.5
		c-0.2,0-0.4-0.1-0.6-0.1c-0.2,0-0.4,0-0.6,0c-0.4,0-0.8,0.1-1.2,0.3c-0.4,0.2-0.7,0.4-1,0.8c-0.3,0.3-0.5,0.8-0.7,1.3
		s-0.3,1.1-0.3,1.7v5.6h-2.6L80.1,62.6z M98.9,74.3h-2.6v-1.6h0c-0.3,0.6-0.8,1.1-1.4,1.4c-0.6,0.4-1.3,0.5-1.9,0.5
		c-1.5,0-2.7-0.4-3.4-1.1c-0.7-0.8-1-1.9-1-3.5v-7.5h2.6v7.2c0,1,0.2,1.8,0.6,2.2c0.4,0.4,1,0.6,1.7,0.6c0.5,0,1-0.1,1.4-0.3
		c0.4-0.2,0.7-0.4,0.9-0.7c0.2-0.3,0.4-0.6,0.5-1s0.2-0.8,0.2-1.3v-6.8h2.6L98.9,74.3L98.9,74.3z M103.3,70.6
		c0.1,0.8,0.4,1.3,0.9,1.6c0.5,0.3,1.1,0.5,1.8,0.5c0.2,0,0.5,0,0.8-0.1c0.3,0,0.6-0.1,0.9-0.2c0.3-0.1,0.5-0.3,0.7-0.5
		c0.2-0.2,0.3-0.5,0.2-0.8c0-0.3-0.1-0.6-0.4-0.8s-0.5-0.4-0.9-0.5c-0.3-0.1-0.8-0.2-1.2-0.3c-0.5-0.1-0.9-0.2-1.4-0.3
		c-0.5-0.1-1-0.2-1.4-0.4c-0.5-0.2-0.8-0.3-1.2-0.6c-0.3-0.3-0.6-0.6-0.8-1c-0.2-0.4-0.3-0.9-0.3-1.5c0-0.6,0.2-1.2,0.5-1.6
		c0.3-0.4,0.7-0.8,1.2-1c0.5-0.3,1-0.5,1.6-0.6c0.6-0.1,1.1-0.2,1.7-0.2c0.6,0,1.2,0.1,1.7,0.2c0.5,0.1,1.1,0.3,1.5,0.6
		c0.5,0.3,0.8,0.7,1.1,1.1c0.3,0.5,0.5,1,0.6,1.7h-2.7c-0.1-0.6-0.4-1-0.8-1.3c-0.5-0.2-1-0.3-1.5-0.3c-0.2,0-0.4,0-0.6,0
		c-0.3,0-0.5,0.1-0.7,0.2c-0.2,0.1-0.4,0.2-0.6,0.4c-0.2,0.2-0.2,0.4-0.2,0.6c0,0.3,0.1,0.6,0.3,0.8c0.2,0.2,0.5,0.3,0.9,0.5
		c0.3,0.1,0.8,0.2,1.2,0.3c0.5,0.1,0.9,0.2,1.4,0.3c0.5,0.1,0.9,0.2,1.4,0.4c0.5,0.2,0.9,0.3,1.2,0.6c0.3,0.3,0.6,0.6,0.9,1
		c0.2,0.4,0.3,0.9,0.3,1.4c0,0.7-0.2,1.3-0.5,1.8c-0.3,0.5-0.7,0.9-1.2,1.2s-1.1,0.5-1.7,0.7c-0.6,0.1-1.2,0.2-1.8,0.2
		c-0.7,0-1.4-0.1-2.1-0.3c-0.6-0.2-1.2-0.4-1.6-0.8c-0.5-0.3-0.8-0.8-1.1-1.3c-0.3-0.5-0.4-1.1-0.4-1.8L103.3,70.6L103.3,70.6
		L103.3,70.6z M111.8,62.6h2V59h2.6v3.5h2.3v1.9h-2.3v6.3c0,0.3,0,0.5,0,0.7c0,0.2,0.1,0.4,0.2,0.5c0.1,0.1,0.2,0.2,0.4,0.3
		c0.2,0.1,0.4,0.1,0.7,0.1c0.2,0,0.4,0,0.5,0c0.2,0,0.4,0,0.5-0.1v2c-0.3,0-0.6,0.1-0.8,0.1c-0.3,0-0.5,0-0.8,0
		c-0.7,0-1.2-0.1-1.6-0.2c-0.4-0.1-0.7-0.3-1-0.6c-0.2-0.3-0.4-0.6-0.5-0.9s-0.1-0.8-0.2-1.3v-6.9h-2L111.8,62.6L111.8,62.6z
		 M120.6,62.6h2.4v1.6h0c0.4-0.7,0.9-1.2,1.5-1.5c0.6-0.3,1.3-0.5,2.1-0.5c0.9,0,1.7,0.2,2.4,0.5c0.7,0.3,1.3,0.8,1.7,1.3
		c0.5,0.6,0.8,1.2,1,2s0.3,1.6,0.3,2.4c0,0.8-0.1,1.6-0.3,2.3c-0.2,0.7-0.5,1.4-0.9,2s-0.9,1-1.6,1.4c-0.6,0.3-1.4,0.5-2.2,0.5
		c-0.4,0-0.8,0-1.1-0.1s-0.7-0.2-1.1-0.3c-0.3-0.2-0.7-0.3-1-0.6c-0.3-0.2-0.5-0.5-0.7-0.8h0v5.9h-2.6L120.6,62.6L120.6,62.6z
		 M129.6,68.5c0-0.5-0.1-1-0.2-1.5c-0.1-0.5-0.3-0.9-0.6-1.3c-0.3-0.4-0.6-0.7-1-0.9c-0.4-0.2-0.9-0.3-1.4-0.3
		c-1.1,0-1.9,0.4-2.5,1.1c-0.5,0.8-0.8,1.8-0.8,3c0,0.6,0.1,1.1,0.2,1.6c0.2,0.5,0.3,0.9,0.6,1.3c0.3,0.4,0.6,0.6,1,0.9
		c0.4,0.2,0.9,0.3,1.4,0.3c0.6,0,1.1-0.1,1.5-0.4c0.4-0.2,0.7-0.6,1-0.9c0.3-0.4,0.5-0.8,0.6-1.3C129.5,69.5,129.6,69,129.6,68.5z
		 M134.2,58.1h2.6v2.4h-2.6V58.1z M134.2,62.6h2.6v11.7h-2.6V62.6z M139.1,58.1h2.6v16.2h-2.6V58.1z M149.6,74.7
		c-0.9,0-1.8-0.2-2.5-0.5c-0.7-0.3-1.3-0.7-1.9-1.3c-0.5-0.5-0.9-1.2-1.1-2s-0.4-1.6-0.4-2.5c0-0.9,0.1-1.7,0.4-2.5
		c0.3-0.8,0.6-1.4,1.1-2c0.5-0.5,1.1-1,1.9-1.3c0.7-0.3,1.6-0.5,2.5-0.5s1.8,0.2,2.5,0.5c0.7,0.3,1.3,0.7,1.9,1.3
		c0.5,0.5,0.9,1.2,1.1,2s0.4,1.6,0.4,2.5c0,0.9-0.1,1.7-0.4,2.5s-0.6,1.4-1.1,2c-0.5,0.5-1.1,1-1.9,1.3
		C151.4,74.5,150.5,74.7,149.6,74.7z M149.6,72.6c0.6,0,1.1-0.1,1.5-0.4c0.4-0.2,0.8-0.6,1-1c0.3-0.4,0.5-0.8,0.6-1.3
		c0.1-0.5,0.2-1,0.2-1.5c0-0.5-0.1-1-0.2-1.5s-0.3-0.9-0.6-1.3s-0.6-0.7-1-0.9c-0.4-0.2-0.9-0.4-1.5-0.4s-1.1,0.1-1.5,0.4
		c-0.4,0.2-0.8,0.6-1,0.9c-0.3,0.4-0.5,0.8-0.6,1.3s-0.2,1-0.2,1.5c0,0.5,0.1,1,0.2,1.5c0.1,0.5,0.3,0.9,0.6,1.3
		c0.3,0.4,0.6,0.7,1,1C148.5,72.5,149,72.6,149.6,72.6z M156.3,62.6h2V59h2.6v3.5h2.3v1.9h-2.3v6.3c0,0.3,0,0.5,0,0.7
		c0,0.2,0.1,0.4,0.2,0.5c0.1,0.1,0.2,0.2,0.4,0.3c0.2,0.1,0.4,0.1,0.7,0.1c0.2,0,0.4,0,0.5,0c0.2,0,0.4,0,0.5-0.1v2
		c-0.3,0-0.6,0.1-0.8,0.1c-0.3,0-0.5,0-0.8,0c-0.7,0-1.2-0.1-1.6-0.2c-0.4-0.1-0.7-0.3-1-0.6c-0.2-0.3-0.4-0.6-0.5-0.9
		c-0.1-0.4-0.1-0.8-0.2-1.3v-6.9h-2V62.6L156.3,62.6z"/>
	<path class="st0" d="M64.5,58.1H52.7L49,46.8l-3.7,11.3l-11.9,0l9.6,7l-3.7,11.3l9.6-7l9.6,7l-3.7-11.3L64.5,58.1z"/>
	<path class="st1" d="M55.8,67.6l-0.8-2.6L49,69.4L55.8,67.6z"/>
</g>
</svg>
