<?xml version="1.0" encoding="utf-8"?>
<!-- Generator: Adobe Illustrator 25.2.1, SVG Export Plug-In . SVG Version: 6.00 Build 0)  -->
<svg version="1.1" id="Layer_1" xmlns="http://www.w3.org/2000/svg" xmlns:xlink="http://www.w3.org/1999/xlink" x="0px" y="0px"
	 viewBox="0 0 1182.7 268.5" style="enable-background:new 0 0 1182.7 268.5;" xml:space="preserve">
<style type="text/css">
	.st0{fill:#D44054;}
	.st1{fill:#D44155;}
</style>
<g>
	<path class="st0" d="M134.3,0C60.2,0,0,60.2,0,134.3c0,74,60.2,134.3,134.3,134.3s134.3-60.2,134.3-134.3
		C268.5,60.2,208.3,0,134.3,0z M134.3,249.7c-63.6,0-115.4-51.8-115.4-115.4c0-63.6,51.8-115.4,115.4-115.4s115.4,51.8,115.4,115.4
		C249.7,197.9,197.9,249.7,134.3,249.7z"/>
	<path class="st0" d="M134.3,26.4c-59.5,0-107.9,48.4-107.9,107.9c0,59.5,48.4,107.9,107.9,107.9s107.9-48.4,107.9-107.9
		C242.1,74.8,193.7,26.4,134.3,26.4z M149,188.2v-73.2h31.5V90.7H199l17.1,23.5l-48.3,73.9L149,188.2z M119.6,188.2l-18.8-0.1
		l-48.3-73.9l17.1-23.5h18.5v24.3h31.5V188.2z"/>
</g>
<g>
	<path d="M365.6,83.7h-15.3v14.5l-8.1,0.1v12.8l8.1,0v52.8c0,16.1,7.5,24.2,22.6,24.2h11.6v-12.8h-7.5c-7.2,0-10.9-4.2-10.9-12.6
		v-51.6h18.4V98.2h-18.9L365.6,83.7z"/>
	<polygon points="488.9,167.8 464.8,98.2 450.5,98.2 428,167.8 411.2,98.2 395.2,98.2 418,188 434.5,188 457.2,120.9 481.3,188 
		497.4,188 520.9,98.2 504.1,98.2 	"/>
	<path d="M566.6,98.2c-28.7,0-43,14.6-43,43.9c0,30.6,15.1,45.9,45.4,45.9c11.3,0,21-0.9,28.9-2.6v-12.8c-7.9,1.7-15.9,2.6-23.8,2.6
		c-23.1,0-34.7-9.2-34.7-27.5h60.5C605.1,114.7,594.1,98.2,566.6,98.2z M585.4,134.5h-46c1-15.7,9.2-23.6,24.6-23.6
		C579.1,110.9,586.2,118.8,585.4,134.5z"/>
	<path d="M648,98.2c-9.2,0-18.7,1.4-28.4,4.3v12.8c9.7-2.8,19.2-4.3,28.4-4.3c16.1,0,24.2,4.9,24.2,14.6v8.5
		c-6.7-1.1-14.5-1.7-23.4-1.7c-24.3,0-36.4,9.2-36.4,27.6c0,18.6,11.3,28,33.8,28c10.5,0,19.7-2.1,27.5-6.3l6.3,6.3h8V127
		C688.1,107.8,674.7,98.2,648,98.2z M672.2,168.2c-6.4,4.7-15.1,7-26.1,7c-12,0-18-5.1-18-15.4c0-9.7,6.9-14.5,20.6-14.5
		c9.3,0,17.2,0.6,23.4,1.7V168.2z"/>
	<polygon points="719.9,81.1 719.9,65.7 703.7,65.7 703.7,188 719.5,188 	"/>
	<polygon points="771.8,188 731.4,132.6 722.5,147.9 751.8,188 	"/>
	<polygon points="708,149.8 747.2,106.9 769,106.9 714,167.1 	"/>
	<g>
		<path class="st1" d="M779.2,188.6v-91H790l2.9,11.6c11-7.7,22.1-11.6,33.3-11.6c21,0,31.5,11.3,31.5,33.9v57.1h-16v-57.4
			c0-13.5-6.7-20.3-20.2-20.3c-9.2,0-17.9,3.8-26.2,11.5v66.1H779.2z"/>
		<path class="st1" d="M956.5,147.7h-61.3c0,18.6,11.7,27.9,35.2,27.9c8,0,16.1-0.9,24.1-2.6v13c-8,1.7-17.8,2.6-29.3,2.6
			c-30.7,0-46-15.5-46-46.5c0-29.6,14.5-44.4,43.6-44.4C950.7,97.6,961.9,114.3,956.5,147.7z M895.3,134.3h46.6
			c0.8-15.9-6.4-23.9-21.7-23.9C904.6,110.4,896.3,118.4,895.3,134.3z"/>
		<path class="st1" d="M970.9,97.6h16.2l17,70.4l22.8-70.4h14.5l24.4,70.4l15.4-70.4h17l-23.7,91h-16.4l-24.3-68l-23,68H994
			L970.9,97.6z"/>
		<path class="st1" d="M1113.4,184.2v-13.9c10.1,3.5,20.6,5.2,31.5,5.2c14.5,0,21.7-4.3,21.7-13c0-8.1-4.8-12.1-14.3-12.1h-14.7
			c-19.1,0-28.6-9-28.6-26.9c0-17.3,12.6-26,37.9-26c10.9,0,21.3,1.4,31.5,4.3v13.9c-10.1-3.5-20.6-5.2-31.5-5.2
			c-15.1,0-22.7,4.3-22.7,13c0,8.1,4.5,12.1,13.4,12.1h14.7c20.2,0,30.3,9,30.3,26.9c0,17.3-12.6,26-37.8,26
			C1134,188.6,1123.5,187.1,1113.4,184.2z"/>
	</g>
</g>
</svg>
