<?xml version="1.0" encoding="utf-8"?>
<!-- Generator: Adobe Illustrator 25.2.1, SVG Export Plug-In . SVG Version: 6.00 Build 0)  -->
<svg version="1.1" id="Layer_1" xmlns="http://www.w3.org/2000/svg" xmlns:xlink="http://www.w3.org/1999/xlink" x="0px" y="0px"
	 viewBox="0 0 587 406" style="enable-background:new 0 0 587 406;" xml:space="preserve">
<style type="text/css">
	.st0{fill:#D44054;}
	.st1{fill:#D44155;}
</style>
<g>
	<path class="st0" d="M293.6,4.9c-74,0-134.3,60.2-134.3,134.3c0,74,60.2,134.3,134.3,134.3s134.3-60.2,134.3-134.3
		C427.8,65.1,367.6,4.9,293.6,4.9z M293.6,254.5c-63.6,0-115.4-51.8-115.4-115.4c0-63.6,51.8-115.4,115.4-115.4S409,75.5,409,139.1
		C409,202.7,357.2,254.5,293.6,254.5z"/>
	<path class="st0" d="M293.6,31.2c-59.5,0-107.9,48.4-107.9,107.9c0,59.5,48.4,107.9,107.9,107.9s107.9-48.4,107.9-107.9
		C401.4,79.6,353.1,31.2,293.6,31.2z M308.3,193v-73.2h31.5V95.5h18.5l17.1,23.5l-48.3,73.9L308.3,193z M279,193l-18.8-0.1
		l-48.3-73.9L229,95.5h18.5v24.3H279V193z"/>
</g>
<g>
	<path d="M20.6,329.2H10.1v10l-5.5,0v8.8l5.5,0v36.3c0,11.1,5.2,16.6,15.5,16.6h8v-8.8h-5.2c-5,0-7.5-2.9-7.5-8.6v-35.5h12.6v-8.8
		h-13L20.6,329.2z"/>
	<polygon points="105.4,387.1 88.8,339.2 79,339.2 63.5,387.1 52,339.2 41,339.2 56.6,401 68,401 83.6,354.8 100.2,401 111.3,401 
		127.4,339.2 115.9,339.2 	"/>
	<path d="M158.9,339.2c-19.7,0-29.6,10.1-29.6,30.2c0,21.1,10.4,31.6,31.2,31.6c7.8,0,14.4-0.6,19.9-1.8v-8.8
		c-5.5,1.2-10.9,1.8-16.4,1.8c-15.9,0-23.9-6.3-23.9-18.9h41.6C185.4,350.6,177.8,339.2,158.9,339.2z M171.8,364.2h-31.6
		c0.7-10.8,6.4-16.2,16.9-16.2C167.4,348,172.3,353.4,171.8,364.2z"/>
	<path d="M214.9,339.2c-6.4,0-12.9,1-19.5,2.9v8.8c6.7-2,13.2-2.9,19.5-2.9c11.1,0,16.6,3.4,16.6,10.1v5.8c-4.6-0.8-10-1.2-16.1-1.2
		c-16.7,0-25.1,6.3-25.1,19c0,12.8,7.7,19.2,23.2,19.2c7.3,0,13.6-1.5,18.9-4.4l4.4,4.4h5.5v-42
		C242.4,345.8,233.2,339.2,214.9,339.2z M231.5,387.4c-4.4,3.2-10.4,4.8-17.9,4.8c-8.2,0-12.4-3.5-12.4-10.6c0-6.7,4.7-10,14.2-10
		c6.4,0,11.8,0.4,16.1,1.2V387.4z"/>
	<polygon points="264.3,327.5 264.3,316.9 253.2,316.9 253.2,401 264.1,401 	"/>
	<polygon points="300,401 272.2,362.9 266.1,373.4 286.3,401 	"/>
	<polygon points="256.1,374.7 283.1,345.2 298.1,345.2 260.3,386.6 	"/>
	<g>
		<path class="st1" d="M305.1,401.4v-62.6h7.4l2,8c7.6-5.3,15.2-8,22.9-8c14.4,0,21.6,7.8,21.6,23.3v39.3h-11v-39.5
			c0-9.3-4.6-13.9-13.9-13.9c-6.3,0-12.3,2.6-18,7.9v45.5H305.1z"/>
		<path class="st1" d="M427.1,373.3H385c0,12.8,8.1,19.2,24.2,19.2c5.5,0,11-0.6,16.6-1.8v8.9c-5.5,1.2-12.2,1.8-20.1,1.8
			c-21.1,0-31.6-10.7-31.6-32c0-20.4,10-30.6,30-30.6C423.1,338.8,430.8,350.3,427.1,373.3z M385,364.1H417
			c0.6-11-4.4-16.4-14.9-16.4C391.4,347.6,385.7,353.1,385,364.1z"/>
		<path class="st1" d="M437,338.8h11.1l11.7,48.5l15.7-48.5h10l16.8,48.5l10.6-48.5h11.7l-16.3,62.6h-11.3l-16.7-46.8l-15.9,46.8
			h-11.5L437,338.8z"/>
		<path class="st1" d="M535,398.4v-9.5c7,2.4,14.2,3.6,21.7,3.6c10,0,15-3,15-8.9c0-5.6-3.3-8.3-9.8-8.3h-10.1
			c-13.1,0-19.7-6.2-19.7-18.5c0-11.9,8.7-17.9,26-17.9c7.5,0,14.7,1,21.6,3v9.5c-7-2.4-14.2-3.6-21.6-3.6c-10.4,0-15.6,3-15.6,8.9
			c0,5.6,3.1,8.3,9.2,8.3h10.1c13.9,0,20.9,6.2,20.9,18.5c0,11.9-8.7,17.9-26,17.9C549.1,401.4,541.9,400.4,535,398.4z"/>
	</g>
</g>
</svg>
