<?xml version="1.0" encoding="utf-8"?>
<!-- Generator: Adobe Illustrator 25.2.1, SVG Export Plug-In . SVG Version: 6.00 Build 0)  -->
<svg version="1.1" id="Layer_1" xmlns="http://www.w3.org/2000/svg" xmlns:xlink="http://www.w3.org/1999/xlink" x="0px" y="0px"
	 viewBox="0 0 973.7 550.7" style="enable-background:new 0 0 973.7 550.7;" xml:space="preserve">
<style type="text/css">
	.st0{fill:#2A7ABF;}
	.st1{fill:#328F71;}
	.st2{fill:url(#SVGID_1_);}
</style>
<g>
	<path class="st0" d="M299.4,9.7h74.7c0,0-61,224.9-64.2,239.9c-3.8,17.6-3.9,35.8,17.8,38.1c37.6,4,48.4-15.1,57.5-50.5
		c14.3-55.7,55.7-227.4,55.7-227.4h74.7c0,0,39.8,173.4,49.3,190.8L606.3,9.7H681l-10.6,52c0,0,43.6-49.1,88.6-49
		c30.4,0.1,60.4,14.4,60.4,14.4L803.5,94c0,0-33.4-33.4-70-11.1c-36.6,22.3-6.4,47.7,28.6,79.5c35,31.8,61,132.6-60.8,171.2
		l-14.5,2.2h-55.8H528.4l-47.7-174.9c0,0-12.7,41.4-20.7,73.2c-8,31.8-39.8,111.3-128.8,111.3c-89.1,0-106.6-25.4-74.7-159
		L299.4,9.7z M655.4,136.1c0,0-31.8,127.7-34.2,136c0,0,63.6,0,70,0c6.4,0,42.9-23.2,23.1-52.2c-19.9-29-41.4-47-50.1-62.2
		C657.5,146.1,655.4,136.1,655.4,136.1z"/>
	<path class="st1" d="M270.3,129.1c-7,4.4-23.2,19-42.8,32.1c-24.7,16.6-44,32-53,40.1c-8.5,7.6-29.6,30.9-13.5,45.8
		c16.1,14.9,45.7,9.4,88.6-6.1l2.4-10.6c0,0-41.5,17.2-59,14.7c-14.6-2.1-38.2-25.1-3.4-50.4c3.2-2.3,20.1-13.9,28.2-19
		c12.5-7.8,25.9-14.9,46.1-20.5L270.3,129.1z"/>
	<linearGradient id="SVGID_1_" gradientUnits="userSpaceOnUse" x1="249.5637" y1="169.6674" x2="691.1642" y2="169.6674">
		<stop  offset="0" style="stop-color:#328F71"/>
		<stop  offset="7.404696e-02" style="stop-color:#4C967A"/>
		<stop  offset="0.1662" style="stop-color:#5E9D84"/>
		<stop  offset="0.2331" style="stop-color:#649F87"/>
		<stop  offset="0.589" style="stop-color:#F3F6F3"/>
		<stop  offset="1" style="stop-color:#FFFFFF"/>
	</linearGradient>
	<path class="st2" d="M249.6,241c53.7-19.1,154.9-72.2,250.7-103.6c22.8-7.5,43-14.4,91.5-23.7c17.6-3.4,36.3-6.2,60.8-8.9
		c8.4-0.9,18.6-2,28.1-3.2c5.2-0.6,4.6,0.2,10.5-0.6c0,0-8.7-3.7-30.2-2.5c-15.2,0.8-35.3,3.2-58.1,6.7
		c-30.5,4.7-71.9,14.2-103.7,25.3C395,167.1,261.5,228.1,252,230.5L249.6,241z"/>
</g>
<g>
	<path class="st0" d="M98.5,492.7c0,8.1-0.9,15.2-2.7,21.3c-1.8,6.1-4.7,11.1-8.8,15.1c-3.9,3.8-8.4,6.6-13.6,8.4
		c-5.2,1.8-11.2,2.6-18.1,2.6c-7,0-13.2-0.9-18.4-2.8c-5.2-1.9-9.6-4.6-13.2-8.2c-4.1-4.1-7-9.1-8.8-14.9c-1.8-5.8-2.7-13-2.7-21.5
		v-67.2h14.9v68c0,6.1,0.4,10.9,1.2,14.4c0.8,3.5,2.2,6.7,4.2,9.6c2.2,3.3,5.2,5.7,9,7.4c3.8,1.7,8.4,2.5,13.7,2.5
		c5.4,0,10-0.8,13.7-2.5c3.8-1.6,6.8-4.1,9.1-7.4c2-2.9,3.4-6.1,4.2-9.8c0.8-3.7,1.2-8.3,1.2-13.8v-68.3h14.9V492.7z"/>
	<path class="st0" d="M178.3,513.5c0,7.7-3.2,14-9.5,18.9c-6.4,4.9-15,7.4-26.1,7.4c-6.2,0-12-0.7-17.2-2.2
		c-5.2-1.5-9.6-3.1-13.1-4.9v-15.9h0.8c4.5,3.4,9.5,6,14.9,8c5.5,2,10.7,3,15.8,3c6.2,0,11.1-1,14.6-3c3.5-2,5.3-5.2,5.3-9.5
		c0-3.3-1-5.8-2.9-7.5c-1.9-1.7-5.6-3.2-11-4.4c-2-0.5-4.6-1-7.9-1.6c-3.2-0.6-6.2-1.3-8.9-2c-7.4-2-12.6-4.8-15.7-8.6
		c-3.1-3.8-4.6-8.5-4.6-14c0-3.5,0.7-6.7,2.2-9.8c1.4-3.1,3.6-5.8,6.5-8.2c2.8-2.4,6.4-4.2,10.7-5.6c4.3-1.4,9.2-2.1,14.6-2.1
		c5,0,10.1,0.6,15.3,1.8c5.2,1.2,9.4,2.7,12.9,4.5V473h-0.8c-3.6-2.7-8-4.9-13.2-6.8c-5.2-1.8-10.3-2.8-15.2-2.8
		c-5.2,0-9.6,1-13.1,3c-3.6,2-5.4,4.9-5.4,8.9c0,3.5,1.1,6.1,3.2,7.8c2.1,1.8,5.5,3.2,10.3,4.3c2.6,0.6,5.5,1.2,8.8,1.8
		c3.2,0.6,5.9,1.2,8.1,1.7c6.6,1.5,11.7,4.1,15.2,7.8C176.5,502.5,178.3,507.4,178.3,513.5z"/>
	<path class="st0" d="M261.4,497.2h-62.1c0,5.2,0.8,9.7,2.3,13.5c1.6,3.8,3.7,7,6.4,9.5c2.6,2.4,5.7,4.2,9.3,5.4
		c3.6,1.2,7.6,1.8,11.9,1.8c5.7,0,11.5-1.1,17.3-3.4c5.8-2.3,9.9-4.5,12.4-6.7h0.8v15.5c-4.8,2-9.7,3.7-14.6,5.1
		c-5,1.4-10.2,2-15.7,2c-14,0-24.9-3.8-32.7-11.4c-7.8-7.6-11.8-18.3-11.8-32.2c0-13.8,3.8-24.7,11.3-32.8
		c7.5-8.1,17.4-12.1,29.7-12.1c11.4,0,20.1,3.3,26.3,10c6.2,6.6,9.2,16.1,9.2,28.3V497.2z M247.6,486.3c-0.1-7.4-1.9-13.2-5.6-17.3
		c-3.7-4.1-9.3-6.1-16.9-6.1c-7.6,0-13.6,2.2-18.1,6.7c-4.5,4.5-7.1,10-7.7,16.7H247.6z"/>
	<path class="st0" d="M345.6,537.8h-14.2v-48c0-3.9-0.2-7.5-0.7-10.9c-0.5-3.4-1.3-6-2.5-8c-1.3-2.1-3.1-3.7-5.4-4.7
		c-2.4-1-5.4-1.5-9.2-1.5c-3.9,0-7.9,1-12.1,2.9c-4.2,1.9-8.3,4.3-12.1,7.3v62.9h-14.2v-84.3h14.2v9.4c4.4-3.7,9-6.5,13.7-8.6
		c4.7-2.1,9.6-3.1,14.6-3.1c9.1,0,16,2.7,20.8,8.2c4.8,5.5,7.2,13.4,7.2,23.7V537.8z"/>
	<path class="st0" d="M435.7,497.2h-62.1c0,5.2,0.8,9.7,2.3,13.5c1.6,3.8,3.7,7,6.4,9.5c2.6,2.4,5.7,4.2,9.3,5.4
		c3.6,1.2,7.6,1.8,11.9,1.8c5.7,0,11.5-1.1,17.3-3.4c5.8-2.3,9.9-4.5,12.4-6.7h0.8v15.5c-4.8,2-9.7,3.7-14.6,5.1
		c-5,1.4-10.2,2-15.7,2c-14,0-24.9-3.8-32.7-11.4c-7.8-7.6-11.8-18.3-11.8-32.2c0-13.8,3.8-24.7,11.3-32.8
		c7.5-8.1,17.4-12.1,29.7-12.1c11.4,0,20.1,3.3,26.3,10c6.2,6.6,9.2,16.1,9.2,28.3V497.2z M421.9,486.3c-0.1-7.4-1.9-13.2-5.6-17.3
		c-3.7-4.1-9.3-6.1-16.9-6.1c-7.6,0-13.6,2.2-18.1,6.7c-4.5,4.5-7.1,10-7.7,16.7H421.9z"/>
	<path class="st0" d="M493.2,537.1c-2.7,0.7-5.6,1.3-8.7,1.7c-3.1,0.5-5.9,0.7-8.4,0.7c-8.6,0-15.1-2.3-19.6-6.9
		c-4.5-4.6-6.7-12-6.7-22.3v-44.8h-9.6v-11.9h9.6v-24.2H464v24.2h29.3v11.9H464v38.4c0,4.4,0.1,7.9,0.3,10.4c0.2,2.5,0.9,4.8,2.1,7
		c1.1,2,2.6,3.5,4.6,4.4c1.9,0.9,4.9,1.4,8.9,1.4c2.3,0,4.7-0.3,7.2-1c2.5-0.7,4.3-1.2,5.4-1.7h0.8V537.1z"/>
	<path class="st0" d="M585.4,505.8c0,4.4-1,8.7-3.1,13c-2,4.3-4.9,7.9-8.6,10.9c-4,3.2-8.7,5.7-14.1,7.5c-5.4,1.8-11.8,2.7-19.3,2.7
		c-8.1,0-15.4-0.8-21.8-2.3c-6.5-1.5-13-3.7-19.7-6.7v-18.7h1.1c5.7,4.7,12.2,8.4,19.7,10.9c7.4,2.6,14.4,3.8,21,3.8
		c9.2,0,16.5-1.7,21.6-5.2c5.2-3.5,7.7-8.1,7.7-13.9c0-5-1.2-8.6-3.7-11c-2.4-2.4-6.1-4.2-11.1-5.5c-3.8-1-7.9-1.8-12.3-2.5
		c-4.4-0.7-9.1-1.5-14-2.5c-10-2.1-17.3-5.7-22.1-10.8c-4.8-5.1-7.2-11.8-7.2-20c0-9.4,4-17.1,11.9-23.1c7.9-6,18-9,30.2-9
		c7.9,0,15.1,0.8,21.7,2.3c6.6,1.5,12.4,3.4,17.5,5.6V449h-1.1c-4.3-3.6-9.9-6.6-16.9-9c-7-2.4-14.1-3.6-21.4-3.6
		c-8,0-14.4,1.7-19.3,5c-4.9,3.3-7.3,7.6-7.3,12.8c0,4.7,1.2,8.3,3.6,11c2.4,2.7,6.7,4.7,12.7,6.1c3.2,0.7,7.8,1.6,13.7,2.6
		c5.9,1,11,2,15.1,3.1c8.3,2.2,14.6,5.6,18.9,10C583.3,491.5,585.4,497.7,585.4,505.8z"/>
	<path class="st0" d="M671,497.2H609c0,5.2,0.8,9.7,2.3,13.5c1.6,3.8,3.7,7,6.4,9.5c2.6,2.4,5.7,4.2,9.3,5.4
		c3.6,1.2,7.6,1.8,11.9,1.8c5.7,0,11.5-1.1,17.3-3.4c5.8-2.3,9.9-4.5,12.4-6.7h0.8v15.5c-4.8,2-9.7,3.7-14.6,5.1
		c-5,1.4-10.2,2-15.7,2c-14,0-24.9-3.8-32.7-11.4c-7.8-7.6-11.8-18.3-11.8-32.2c0-13.8,3.8-24.7,11.3-32.8
		c7.5-8.1,17.4-12.1,29.7-12.1c11.4,0,20.1,3.3,26.3,10c6.2,6.6,9.2,16.1,9.2,28.3V497.2z M657.2,486.3c0-7.4-1.9-13.2-5.6-17.3
		c-3.7-4.1-9.3-6.1-16.9-6.1c-7.6,0-13.6,2.2-18.1,6.7c-4.5,4.5-7.1,10-7.7,16.7H657.2z"/>
	<path class="st0" d="M737.4,469h-0.8c-2.1-0.5-4.2-0.9-6.1-1.1c-2-0.2-4.3-0.3-7.1-0.3c-4.4,0-8.6,1-12.7,2.9
		c-4.1,1.9-8,4.4-11.8,7.5v59.8h-14.2v-84.3H699V466c5.6-4.5,10.6-7.7,14.9-9.6c4.3-1.9,8.7-2.8,13.2-2.8c2.5,0,4.2,0.1,5.4,0.2
		c1.1,0.1,2.8,0.4,5,0.7V469z"/>
	<path class="st0" d="M815.9,453.6l-34.1,84.3h-14.3l-33.9-84.3H749l26.1,67.1l25.9-67.1H815.9z"/>
	<path class="st0" d="M895.9,497.2h-62.1c0,5.2,0.8,9.7,2.3,13.5c1.6,3.8,3.7,7,6.4,9.5c2.6,2.4,5.7,4.2,9.3,5.4
		c3.6,1.2,7.6,1.8,11.9,1.8c5.7,0,11.5-1.1,17.3-3.4c5.8-2.3,9.9-4.5,12.4-6.7h0.8v15.5c-4.8,2-9.7,3.7-14.6,5.1
		c-5,1.4-10.2,2-15.7,2c-14,0-24.9-3.8-32.7-11.4c-7.8-7.6-11.8-18.3-11.8-32.2c0-13.8,3.8-24.7,11.3-32.8
		c7.5-8.1,17.4-12.1,29.7-12.1c11.4,0,20.1,3.3,26.3,10c6.2,6.6,9.2,16.1,9.2,28.3V497.2z M882.1,486.3c0-7.4-1.9-13.2-5.6-17.3
		c-3.7-4.1-9.3-6.1-16.9-6.1c-7.6,0-13.6,2.2-18.1,6.7c-4.5,4.5-7.1,10-7.7,16.7H882.1z"/>
	<path class="st0" d="M962.2,469h-0.8c-2.1-0.5-4.2-0.9-6.1-1.1c-2-0.2-4.3-0.3-7.1-0.3c-4.4,0-8.6,1-12.7,2.9
		c-4.1,1.9-8,4.4-11.8,7.5v59.8h-14.2v-84.3h14.2V466c5.6-4.5,10.6-7.7,14.9-9.6c4.3-1.9,8.7-2.8,13.2-2.8c2.5,0,4.2,0.1,5.4,0.2
		c1.1,0.1,2.8,0.4,5,0.7V469z"/>
</g>
</svg>
