<?xml version="1.0" encoding="utf-8"?>
<!-- Generator: Adobe Illustrator 25.2.1, SVG Export Plug-In . SVG Version: 6.00 Build 0)  -->
<svg version="1.1" id="Layer_1" xmlns="http://www.w3.org/2000/svg" xmlns:xlink="http://www.w3.org/1999/xlink" x="0px" y="0px"
	 viewBox="0 0 1940.6 335.6" style="enable-background:new 0 0 1940.6 335.6;" xml:space="preserve">
<style type="text/css">
	.st0{fill:#2A7ABF;}
	.st1{fill:#328F71;}
	.st2{fill:url(#SVGID_1_);}
</style>
<g>
	<path class="st0" d="M144.3,0H219c0,0-61,224.9-64.2,239.9c-3.8,17.6-3.9,35.8,17.8,38.1c37.6,4,48.4-15.1,57.5-50.5
		C244.5,171.8,285.8,0,285.8,0h74.7c0,0,39.8,173.4,49.3,190.8L451.2,0H526l-10.6,52c0,0,43.6-49.1,88.6-49
		c30.4,0.1,60.4,14.4,60.4,14.4l-15.9,66.8c0,0-33.4-33.4-70-11.1c-36.6,22.3-6.4,47.7,28.6,79.5c35,31.8,61,132.6-60.8,171.2
		l-14.5,2.2H476H373.3l-47.7-174.9c0,0-12.7,41.4-20.7,73.2c-8,31.8-39.8,111.3-128.8,111.3c-89.1,0-106.6-25.4-74.7-159L144.3,0z
		 M500.3,126.4c0,0-31.8,127.7-34.2,136c0,0,63.6,0,70,0c6.4,0,42.9-23.2,23.1-52.2c-19.9-29-41.4-47-50.1-62.2
		C502.4,136.4,500.3,126.4,500.3,126.4z"/>
	<path class="st1" d="M115.2,119.4c-7,4.4-23.2,19-42.8,32.1c-24.7,16.6-44,32-53,40.1c-8.5,7.6-29.6,30.9-13.5,45.8
		c16.1,14.9,45.7,9.4,88.6-6.1l2.4-10.6c0,0-41.5,17.2-59,14.7c-14.6-2.1-38.2-25.1-3.4-50.4c3.2-2.3,20.1-13.9,28.2-19
		c12.5-7.8,25.9-14.9,46.1-20.5L115.2,119.4z"/>
	<linearGradient id="SVGID_1_" gradientUnits="userSpaceOnUse" x1="94.4773" y1="159.9697" x2="536.0778" y2="159.9697">
		<stop  offset="0" style="stop-color:#328F71"/>
		<stop  offset="7.404696e-02" style="stop-color:#4C967A"/>
		<stop  offset="0.1662" style="stop-color:#5E9D84"/>
		<stop  offset="0.2331" style="stop-color:#649F87"/>
		<stop  offset="0.589" style="stop-color:#F3F6F3"/>
		<stop  offset="1" style="stop-color:#FFFFFF"/>
	</linearGradient>
	<path class="st2" d="M94.5,231.3c53.7-19.1,154.9-72.2,250.7-103.6c22.8-7.5,43-14.4,91.5-23.7c17.6-3.4,36.3-6.2,60.8-8.9
		c8.4-0.9,18.6-2,28.1-3.2c5.2-0.6,4.6,0.2,10.5-0.6c0,0-8.7-3.7-30.2-2.5c-15.2,0.8-35.3,3.2-58.1,6.7
		c-30.5,4.7-71.9,14.2-103.7,25.3c-104.1,36.5-237.6,97.5-247.2,99.9L94.5,231.3z"/>
</g>
<g>
	<path class="st0" d="M878.8,181.2c0,10-1.1,18.7-3.3,26.2c-2.2,7.4-5.8,13.6-10.8,18.6c-4.8,4.7-10.3,8.1-16.7,10.3
		c-6.4,2.2-13.8,3.2-22.3,3.2c-8.7,0-16.2-1.1-22.6-3.4c-6.4-2.3-11.8-5.7-16.2-10.1c-5-5.1-8.6-11.2-10.8-18.4
		c-2.2-7.2-3.3-16-3.3-26.4V98.6h18.4v83.5c0,7.5,0.5,13.4,1.5,17.7c1,4.3,2.7,8.3,5.1,11.8c2.7,4,6.4,7,11.1,9.1
		c4.7,2,10.3,3.1,16.8,3.1c6.6,0,12.2-1,16.9-3c4.6-2,8.3-5.1,11.1-9.1c2.4-3.5,4.1-7.6,5.1-12.1c1-4.5,1.5-10.2,1.5-16.9v-84h18.4
		V181.2z"/>
	<path class="st0" d="M976.9,206.8c0,9.5-3.9,17.2-11.7,23.3c-7.8,6.1-18.5,9.1-32,9.1c-7.7,0-14.7-0.9-21.1-2.7
		c-6.4-1.8-11.8-3.8-16.1-6v-19.6h0.9c5.5,4.1,11.6,7.4,18.4,9.9c6.7,2.4,13.2,3.7,19.4,3.7c7.7,0,13.7-1.2,18-3.7
		c4.3-2.5,6.5-6.4,6.5-11.7c0-4.1-1.2-7.2-3.5-9.3c-2.3-2.1-6.9-3.9-13.5-5.4c-2.5-0.6-5.7-1.2-9.7-1.9c-4-0.7-7.6-1.5-10.9-2.4
		c-9.1-2.4-15.5-5.9-19.3-10.6c-3.8-4.7-5.7-10.4-5.7-17.2c0-4.3,0.9-8.3,2.6-12.1c1.8-3.8,4.4-7.1,8-10.1c3.5-2.9,7.9-5.2,13.2-6.9
		c5.3-1.7,11.3-2.6,17.9-2.6c6.2,0,12.4,0.8,18.8,2.3c6.3,1.5,11.6,3.4,15.8,5.5V157h-0.9c-4.5-3.3-9.9-6-16.2-8.3
		c-6.4-2.3-12.6-3.4-18.7-3.4c-6.4,0-11.7,1.2-16.1,3.7c-4.4,2.4-6.6,6.1-6.6,10.9c0,4.3,1.3,7.5,4,9.6c2.6,2.2,6.8,3.9,12.6,5.3
		c3.2,0.7,6.8,1.5,10.8,2.2c4,0.7,7.3,1.4,10,2c8.1,1.9,14.3,5,18.7,9.6C974.7,193.2,976.9,199.2,976.9,206.8z"/>
	<path class="st0" d="M1079.1,186.7h-76.3c0,6.4,1,11.9,2.9,16.6c1.9,4.7,4.5,8.6,7.9,11.6c3.2,3,7,5.2,11.5,6.7
		c4.4,1.5,9.3,2.2,14.6,2.2c7,0,14.1-1.4,21.3-4.2c7.1-2.8,12.2-5.6,15.3-8.3h0.9v19c-5.9,2.5-11.9,4.5-18,6.2
		c-6.1,1.7-12.5,2.5-19.3,2.5c-17.2,0-30.6-4.7-40.2-14c-9.6-9.3-14.5-22.5-14.5-39.6c0-16.9,4.6-30.4,13.9-40.3
		c9.2-10,21.4-14.9,36.5-14.9c14,0,24.7,4.1,32.3,12.2c7.6,8.2,11.4,19.8,11.4,34.8V186.7z M1062.1,173.3
		c-0.1-9.1-2.4-16.2-6.9-21.2c-4.5-5-11.5-7.5-20.7-7.5c-9.3,0-16.8,2.8-22.3,8.3c-5.5,5.5-8.7,12.3-9.4,20.5H1062.1z"/>
	<path class="st0" d="M1182.6,236.6h-17.4v-59c0-4.8-0.3-9.2-0.8-13.4c-0.6-4.2-1.6-7.4-3.1-9.8c-1.5-2.6-3.8-4.5-6.7-5.8
		c-2.9-1.3-6.7-1.9-11.3-1.9c-4.8,0-9.7,1.2-14.9,3.5c-5.2,2.4-10.2,5.3-14.9,9v77.3H1096V133.1h17.4v11.5c5.4-4.5,11.1-8,16.9-10.6
		c5.8-2.5,11.8-3.8,17.9-3.8c11.2,0,19.7,3.4,25.6,10.1c5.9,6.7,8.8,16.4,8.8,29.1V236.6z"/>
	<path class="st0" d="M1293.4,186.7h-76.3c0,6.4,1,11.9,2.9,16.6c1.9,4.7,4.5,8.6,7.9,11.6c3.2,3,7,5.2,11.5,6.7
		c4.4,1.5,9.3,2.2,14.6,2.2c7,0,14.1-1.4,21.3-4.2c7.1-2.8,12.2-5.6,15.3-8.3h0.9v19c-5.9,2.5-11.9,4.5-18,6.2
		c-6.1,1.7-12.5,2.5-19.3,2.5c-17.2,0-30.6-4.7-40.2-14c-9.6-9.3-14.5-22.5-14.5-39.6c0-16.9,4.6-30.4,13.9-40.3
		c9.2-10,21.4-14.9,36.5-14.9c14,0,24.7,4.1,32.3,12.2c7.6,8.2,11.4,19.8,11.4,34.8V186.7z M1276.4,173.3
		c-0.1-9.1-2.4-16.2-6.9-21.2c-4.5-5-11.5-7.5-20.7-7.5c-9.3,0-16.8,2.8-22.3,8.3c-5.5,5.5-8.7,12.3-9.4,20.5H1276.4z"/>
	<path class="st0" d="M1364.1,235.7c-3.3,0.9-6.8,1.6-10.7,2.1c-3.9,0.6-7.3,0.8-10.3,0.8c-10.6,0-18.6-2.8-24.1-8.5
		c-5.5-5.7-8.3-14.8-8.3-27.4v-55.1h-11.8v-14.7h11.8v-29.8h17.4v29.8h36v14.7h-36v47.2c0,5.4,0.1,9.7,0.4,12.8
		c0.2,3.1,1.1,5.9,2.6,8.6c1.4,2.5,3.2,4.3,5.6,5.4c2.4,1.1,6,1.7,10.9,1.7c2.8,0,5.8-0.4,8.9-1.3c3.1-0.8,5.3-1.5,6.7-2.1h0.9
		V235.7z"/>
	<path class="st0" d="M1477.4,197.2c0,5.4-1.3,10.7-3.8,15.9c-2.5,5.3-6,9.7-10.5,13.4c-4.9,4-10.7,7-17.3,9.3
		c-6.6,2.2-14.5,3.3-23.8,3.3c-10,0-18.9-0.9-26.8-2.8c-7.9-1.9-16-4.6-24.3-8.3v-23h1.3c7,5.8,15.1,10.3,24.2,13.4
		c9.1,3.2,17.7,4.7,25.8,4.7c11.4,0,20.2-2.1,26.6-6.4c6.3-4.3,9.5-10,9.5-17.1c0-6.1-1.5-10.6-4.5-13.5c-3-2.9-7.6-5.2-13.7-6.8
		c-4.6-1.2-9.7-2.3-15.1-3.1c-5.4-0.8-11.1-1.8-17.2-3.1c-12.2-2.6-21.3-7-27.2-13.3c-5.9-6.3-8.9-14.4-8.9-24.5
		c0-11.6,4.9-21,14.7-28.4c9.8-7.4,22.2-11.1,37.2-11.1c9.7,0,18.6,0.9,26.7,2.8c8.1,1.9,15.3,4.1,21.5,6.9v21.7h-1.3
		c-5.3-4.5-12.2-8.1-20.7-11.1c-8.6-2.9-17.3-4.4-26.3-4.4c-9.8,0-17.7,2-23.7,6.1c-6,4.1-8.9,9.3-8.9,15.8c0,5.7,1.5,10.3,4.5,13.5
		c3,3.3,8.2,5.8,15.7,7.5c4,0.9,9.6,1.9,16.9,3.2c7.3,1.2,13.5,2.5,18.5,3.8c10.3,2.7,18,6.8,23.2,12.3
		C1474.8,179.6,1477.4,187.3,1477.4,197.2z"/>
	<path class="st0" d="M1582.7,186.7h-76.3c0,6.4,1,11.9,2.9,16.6c1.9,4.7,4.5,8.6,7.9,11.6c3.2,3,7,5.2,11.5,6.7
		c4.4,1.5,9.3,2.2,14.6,2.2c7,0,14.1-1.4,21.3-4.2c7.1-2.8,12.2-5.6,15.3-8.3h0.9v19c-5.9,2.5-11.9,4.5-18,6.2
		c-6.1,1.7-12.6,2.5-19.3,2.5c-17.2,0-30.6-4.7-40.2-14c-9.6-9.3-14.5-22.5-14.5-39.6c0-16.9,4.6-30.4,13.9-40.3
		c9.2-10,21.4-14.9,36.5-14.9c14,0,24.7,4.1,32.3,12.2s11.4,19.8,11.4,34.8V186.7z M1565.7,173.3c-0.1-9.1-2.4-16.2-6.9-21.2
		c-4.5-5-11.5-7.5-20.7-7.5c-9.3,0-16.8,2.8-22.3,8.3c-5.5,5.5-8.7,12.3-9.4,20.5H1565.7z"/>
	<path class="st0" d="M1664.2,152.1h-0.9c-2.6-0.6-5.1-1.1-7.6-1.3c-2.4-0.3-5.3-0.4-8.7-0.4c-5.4,0-10.6,1.2-15.6,3.6
		c-5,2.4-9.8,5.5-14.5,9.2v73.5h-17.4V133.1h17.4v15.3c6.9-5.6,13-9.5,18.3-11.8c5.3-2.3,10.7-3.5,16.2-3.5c3,0,5.2,0.1,6.6,0.2
		c1.4,0.2,3.4,0.4,6.1,0.9V152.1z"/>
	<path class="st0" d="M1760.7,133.1l-41.9,103.6h-17.5l-41.6-103.6h18.9l32.1,82.4l31.8-82.4H1760.7z"/>
	<path class="st0" d="M1859.1,186.7h-76.3c0,6.4,1,11.9,2.9,16.6c1.9,4.7,4.5,8.6,7.9,11.6c3.2,3,7,5.2,11.5,6.7
		c4.4,1.5,9.3,2.2,14.6,2.2c7,0,14.1-1.4,21.3-4.2c7.1-2.8,12.2-5.6,15.3-8.3h0.9v19c-5.9,2.5-11.9,4.5-18,6.2
		c-6.1,1.7-12.6,2.5-19.3,2.5c-17.2,0-30.6-4.7-40.2-14c-9.6-9.3-14.5-22.5-14.5-39.6c0-16.9,4.6-30.4,13.9-40.3
		c9.2-10,21.4-14.9,36.5-14.9c14,0,24.7,4.1,32.3,12.2c7.6,8.2,11.4,19.8,11.4,34.8V186.7z M1842.1,173.3
		c-0.1-9.1-2.4-16.2-6.9-21.2c-4.5-5-11.5-7.5-20.7-7.5c-9.3,0-16.8,2.8-22.3,8.3c-5.5,5.5-8.7,12.3-9.4,20.5H1842.1z"/>
	<path class="st0" d="M1940.6,152.1h-0.9c-2.6-0.6-5.1-1.1-7.6-1.3c-2.4-0.3-5.3-0.4-8.7-0.4c-5.4,0-10.6,1.2-15.6,3.6
		c-5,2.4-9.8,5.5-14.5,9.2v73.5H1876V133.1h17.4v15.3c6.9-5.6,13-9.5,18.3-11.8c5.3-2.3,10.7-3.5,16.2-3.5c3,0,5.2,0.1,6.6,0.2
		c1.4,0.2,3.4,0.4,6.1,0.9V152.1z"/>
</g>
</svg>
